<?xml version="1.0" encoding="UTF-8" standalone="no"?>
<svg
   xmlns:dc="http://purl.org/dc/elements/1.1/"
   xmlns:cc="http://creativecommons.org/ns#"
   xmlns:rdf="http://www.w3.org/1999/02/22-rdf-syntax-ns#"
   xmlns:svg="http://www.w3.org/2000/svg"
   xmlns="http://www.w3.org/2000/svg"
   xmlns:sodipodi="http://sodipodi.sourceforge.net/DTD/sodipodi-0.dtd"
   xmlns:inkscape="http://www.inkscape.org/namespaces/inkscape"
   version="1.1"
   id="svg2"
   xml:space="preserve"
   width="3200"
   height="2400"
   viewBox="0 0 3200 2400"
   sodipodi:docname="CLOUD COMPUTER.ai"><metadata
     id="metadata8"><rdf:RDF><cc:Work
         rdf:about=""><dc:format>image/svg+xml</dc:format><dc:type
           rdf:resource="http://purl.org/dc/dcmitype/StillImage" /></cc:Work></rdf:RDF></metadata><defs
     id="defs6"><clipPath
       clipPathUnits="userSpaceOnUse"
       id="clipPath18"><path
         d="M 0,1800 H 2400 V 0 H 0 Z"
         id="path16" /></clipPath><clipPath
       clipPathUnits="userSpaceOnUse"
       id="clipPath134"><path
         d="m 1343.2,910.075 -10e-4,10e-4 -4.877,-2.173 1.769,-0.735 c -1.377,-2.137 -2.178,-5.132 -2.178,-8.825 v 0 -360.17 c 0,-10.5 6.444,-22.815 14.321,-27.361 v 0 l 399.657,-230.743 c 7.875,-4.547 14.318,0.324 14.318,10.826 v 0 360.17 c 0,10.5 -6.443,22.814 -14.318,27.36 v 0 l -399.657,230.742 c -2.004,1.156 -3.914,1.703 -5.649,1.703 v 0 c -1.225,0 -2.363,-0.273 -3.385,-0.795"
         id="path132" /></clipPath><clipPath
       clipPathUnits="userSpaceOnUse"
       id="clipPath144"><path
         d="m 1332.355,895.865 v -360.17 c 0,-10.502 6.444,-22.813 14.32,-27.36 v 0 l 399.657,-230.742 c 7.877,-4.548 14.32,0.323 14.32,10.825 v 0 360.169 c 0,10.501 -6.443,22.812 -14.32,27.362 v 0 L 1346.675,906.69 c -2.004,1.157 -3.914,1.704 -5.65,1.704 v 0 c -5.087,-10e-4 -8.67,-4.701 -8.67,-12.529"
         id="path142" /></clipPath><clipPath
       clipPathUnits="userSpaceOnUse"
       id="clipPath154"><path
         d="m 1542.412,781.044 c 0,-3.013 1.831,-6.516 4.093,-7.82 v 0 c 2.259,-1.305 4.091,0.081 4.091,3.094 v 0 c 0,3.013 -1.832,6.514 -4.091,7.818 v 0 c -0.578,0.334 -1.128,0.492 -1.627,0.492 v 0 c -1.451,0 -2.466,-1.341 -2.466,-3.584"
         id="path152" /></clipPath><clipPath
       clipPathUnits="userSpaceOnUse"
       id="clipPath164"><path
         d="m 1352.029,749.349 56.513,97.879 -56.513,32.626 z"
         id="path162" /></clipPath><clipPath
       clipPathUnits="userSpaceOnUse"
       id="clipPath174"><path
         d="m 1401.54,500.402 47.383,-27.356 151.932,263.149 -47.381,27.357 z"
         id="path172" /></clipPath><clipPath
       clipPathUnits="userSpaceOnUse"
       id="clipPath184"><path
         d="m 1522.28,430.694 218.699,-126.267 v 350.867 l -66.768,38.548 z"
         id="path182" /></clipPath><clipPath
       clipPathUnits="userSpaceOnUse"
       id="clipPath194"><path
         d="M 0,1800 H 2400 V 0 H 0 Z"
         id="path192" /></clipPath><clipPath
       clipPathUnits="userSpaceOnUse"
       id="clipPath202"><path
         d="m 1352.03,847.228 h 201.44 V 500.402 h -201.44 z"
         id="path200" /></clipPath><clipPath
       clipPathUnits="userSpaceOnUse"
       id="clipPath218"><path
         d="M 1352.028,749.349 V 528.987 l 49.512,-28.584 151.934,263.148 -144.933,83.677 z"
         id="path216" /></clipPath><clipPath
       clipPathUnits="userSpaceOnUse"
       id="clipPath228"><path
         d="m 1352.03,847.228 h 201.44 V 500.402 h -201.44 z"
         id="path226" /></clipPath><clipPath
       clipPathUnits="userSpaceOnUse"
       id="clipPath240"><path
         d="M 0,1800 H 2400 V 0 H 0 Z"
         id="path238" /></clipPath><clipPath
       clipPathUnits="userSpaceOnUse"
       id="clipPath248"><path
         d="m 1352.03,847.228 h 201.44 V 500.402 h -201.44 z"
         id="path246" /></clipPath><clipPath
       clipPathUnits="userSpaceOnUse"
       id="clipPath260"><path
         d="m 1448.923,473.047 73.358,-42.354 151.93,263.149 -73.356,42.354 z"
         id="path258" /></clipPath><clipPath
       clipPathUnits="userSpaceOnUse"
       id="clipPath270"><path
         d="m 1483.998,628.23 c 0,-6.423 3.904,-13.878 8.719,-16.659 v 0 c 4.815,-2.78 8.719,0.17 8.719,6.591 v 0 c 0,6.419 -3.904,13.878 -8.719,16.657 v 0 c -1.23,0.71 -2.4,1.046 -3.461,1.046 v 0 c -3.093,10e-4 -5.258,-2.856 -5.258,-7.635"
         id="path268" /></clipPath><clipPath
       clipPathUnits="userSpaceOnUse"
       id="clipPath280"><path
         d="m 1519.858,607.526 c 0,-6.421 3.901,-13.878 8.716,-16.657 v 0 c 4.817,-2.781 8.72,0.169 8.72,6.59 v 0 c 0,6.419 -3.903,13.878 -8.72,16.657 v 0 c -1.23,0.71 -2.401,1.046 -3.461,1.046 v 0 c -3.093,10e-4 -5.255,-2.855 -5.255,-7.636"
         id="path278" /></clipPath><clipPath
       clipPathUnits="userSpaceOnUse"
       id="clipPath290"><path
         d="m 1555.716,586.824 c 0,-6.42 3.901,-13.878 8.716,-16.659 v 0 c 4.817,-2.779 8.719,0.171 8.719,6.592 v 0 c 0,6.419 -3.902,13.878 -8.719,16.657 v 0 c -1.229,0.71 -2.4,1.046 -3.461,1.046 v 0 c -3.092,0 -5.255,-2.856 -5.255,-7.636"
         id="path288" /></clipPath><clipPath
       clipPathUnits="userSpaceOnUse"
       id="clipPath300"><path
         d="m 1591.573,566.121 c 0,-6.421 3.902,-13.877 8.717,-16.657 v 0 c 4.817,-2.782 8.718,0.17 8.718,6.591 v 0 c 0,6.419 -3.901,13.876 -8.718,16.656 v 0 c -1.23,0.71 -2.4,1.046 -3.461,1.046 v 0 c -3.093,0 -5.256,-2.856 -5.256,-7.636"
         id="path298" /></clipPath><clipPath
       clipPathUnits="userSpaceOnUse"
       id="clipPath310"><path
         d="m 1394.677,477.734 c -2.48,-1.431 -2.753,-3.618 -0.605,-4.857 v 0 l 283.633,-163.756 c 2.147,-1.239 5.934,-1.082 8.416,0.348 v 0 l 10.257,5.922 -291.445,168.266 z"
         id="path308" /></clipPath><clipPath
       clipPathUnits="userSpaceOnUse"
       id="clipPath320"><path
         d="M 1319.971,502.906 1008.056,322.821 c -0.174,-0.102 -0.34,-0.202 -0.506,-0.304 v 0 l -7.022,0.435 v -10.208 0 c 0,-2.905 1.739,-5.678 5.309,-7.738 v 0 l 169.848,-98.062 59.958,-34.617 169.851,-98.062 c 7.875,-4.548 21.759,-3.972 30.855,1.278 v 0 l 311.915,180.085 c 4.988,2.88 7.535,6.592 7.521,10.11 v 0 h 0.01 v 10.332 l -11.053,0.688 -48.365,27.923 -291.445,168.266 -54.108,31.238 c -3.565,2.059 -8.362,3.067 -13.389,3.067 v 0 c -6.076,0 -12.488,-1.473 -17.465,-4.346"
         id="path318" /></clipPath><clipPath
       clipPathUnits="userSpaceOnUse"
       id="clipPath328"><path
         d="M 990.579,517.201 H 1765.74 V 61.2479 H 990.579 Z"
         id="path326" /></clipPath><clipPath
       clipPathUnits="userSpaceOnUse"
       id="clipPath342"><path
         d="M 1319.971,513.616 1008.056,333.532 c -9.095,-5.25 -10.093,-13.267 -2.215,-17.817 v 0 l 169.849,-98.059 c 2.335,0.783 5.184,0.704 6.937,-0.309 v 0 l 52.486,-30.305 c 1.753,-1.012 1.893,-2.656 0.535,-4.005 v 0 l 169.85,-98.063 c 7.874,-4.546 21.761,-3.971 30.853,1.281 v 0 l 311.915,180.085 c 9.096,5.249 10.091,13.265 2.218,17.813 v 0 l -54.108,31.238 -10.256,-5.921 c -2.481,-1.43 -6.268,-1.589 -8.415,-0.348 v 0 l -283.632,163.756 c -2.148,1.239 -1.876,3.425 0.604,4.857 v 0 l 10.255,5.921 -54.106,31.238 c -3.566,2.06 -8.364,3.069 -13.392,3.069 v 0 c -6.076,0 -12.487,-1.474 -17.463,-4.347"
         id="path340" /></clipPath><clipPath
       clipPathUnits="userSpaceOnUse"
       id="clipPath352"><path
         d="M 1254.531,325.93 1142.01,260.967 c -2.179,-1.258 -2.418,-3.18 -0.53,-4.271 v 0 l 161.788,-93.409 c 1.889,-1.09 5.217,-0.953 7.397,0.307 v 0 l 112.521,64.964 c 2.181,1.26 2.421,3.18 0.532,4.27 v 0 l -161.788,93.409 c -0.855,0.494 -2.005,0.735 -3.211,0.735 v 0 c -1.457,0 -2.995,-0.353 -4.188,-1.042"
         id="path350" /></clipPath><clipPath
       clipPathUnits="userSpaceOnUse"
       id="clipPath360"><path
         d="m 1130.26,336.922 h 304.68 v -184.32 h -304.68 z"
         id="path358" /></clipPath><clipPath
       clipPathUnits="userSpaceOnUse"
       id="clipPath374"><path
         d="m 1175.69,217.654 59.958,-34.616 c 1.358,1.349 1.219,2.993 -0.534,4.005 v 0 l -52.487,30.303 c -0.972,0.562 -2.278,0.836 -3.647,0.836 v 0 c -1.103,0 -2.247,-0.178 -3.29,-0.528"
         id="path372" /></clipPath><clipPath
       clipPathUnits="userSpaceOnUse"
       id="clipPath382"><path
         d="m 1165.74,228.132 h 80.77 v -55.043 h -80.77 z"
         id="path380" /></clipPath><clipPath
       clipPathUnits="userSpaceOnUse"
       id="clipPath396"><path
         d="m 1338.564,485.594 -152.029,-87.773 c -2.289,-1.323 -2.541,-3.343 -0.558,-4.489 v 0 l 353.952,-204.355 c 1.983,-1.144 5.482,-0.998 7.771,0.323 v 0 l 152.03,87.774 c 2.291,1.322 2.542,3.342 0.556,4.486 v 0 l -353.949,204.354 c -0.899,0.52 -2.109,0.774 -3.376,0.774 v 0 c -1.53,0 -3.144,-0.371 -4.397,-1.094"
         id="path394" /></clipPath><clipPath
       clipPathUnits="userSpaceOnUse"
       id="clipPath404"><path
         d="m 1174.69,496.637 h 536.89 V 178.256 h -536.89 z"
         id="path402" /></clipPath><clipPath
       clipPathUnits="userSpaceOnUse"
       id="clipPath418"><path
         d="M 0,1800 H 2400 V 0 H 0 Z"
         id="path416" /></clipPath></defs><sodipodi:namedview
     pagecolor="#ffffff"
     bordercolor="#666666"
     borderopacity="1"
     objecttolerance="10"
     gridtolerance="10"
     guidetolerance="10"
     inkscape:pageopacity="0"
     inkscape:pageshadow="2"
     inkscape:window-width="640"
     inkscape:window-height="480"
     id="namedview4" /><g
     id="g10"
     inkscape:groupmode="layer"
     inkscape:label="CLOUD COMPUTER"
     transform="matrix(1.3333333,0,0,-1.3333333,0,2400)"><g
       id="g12"><g
         id="g14"
         clip-path="url(#clipPath18)"><g
           id="g20"
           transform="translate(1355.3682,1377.1875)"><path
             d="m 0,0 c 9.678,38.954 40.479,53.747 77.004,32.659 19.212,-11.093 36.84,-30.288 50.649,-53.283 0.14,64.331 39.339,93.86 87.68,65.95 42.173,-24.347 77.379,-84.375 85.775,-142.118 0.638,-0.349 1.271,-0.669 1.913,-1.039 36.152,-20.873 66.708,-70.423 76.713,-120.042 3.971,-1.013 8.114,-2.709 12.38,-5.172 29.005,-16.746 52.518,-61.673 52.518,-100.346 0,-38.673 -23.513,-56.449 -52.518,-39.703 l -89.093,51.439 -226.017,130.49 -60.958,35.194 c -29.005,16.746 -52.518,61.672 -52.518,100.346 0,31.21 15.317,48.796 36.472,45.625"
             style="fill:#2940c1;fill-opacity:1;fill-rule:nonzero;stroke:none"
             id="path22" /></g><g
           id="g24"
           transform="translate(1299.9917,1352.6084)"><path
             d="M 0,0 36.472,21.065 45.304,41.229 79.682,61.31 146.07,2.655 175.348,52.632 211.74,73.56 481.019,-341.747 444.191,-362.964 Z"
             style="fill:#2940c1;fill-opacity:1;fill-rule:nonzero;stroke:none"
             id="path26" /></g><g
           id="g28"
           transform="translate(1316.835,1354.9834)"><path
             d="m 0,0 c 9.679,38.953 40.479,53.746 77.005,32.658 19.212,-11.092 36.84,-30.288 50.649,-53.283 0.139,64.332 39.338,93.861 87.68,65.951 42.172,-24.348 77.379,-84.376 85.774,-142.118 0.638,-0.349 1.271,-0.67 1.913,-1.04 36.153,-20.873 66.708,-70.422 76.713,-120.041 3.972,-1.013 8.114,-2.71 12.38,-5.173 29.005,-16.746 52.518,-61.672 52.518,-100.346 0,-38.672 -23.513,-56.448 -52.518,-39.703 l -89.093,51.439 -226.016,130.49 -60.959,35.194 c -29.005,16.746 -52.518,61.673 -52.518,100.346 0,31.21 15.317,48.797 36.472,45.626"
             style="fill:#00b4fe;fill-opacity:1;fill-rule:nonzero;stroke:none"
             id="path30" /></g><g
           id="g32"
           transform="translate(600,844.9941)"><path
             d="m 0,0 113.264,-34.463 0.007,-94.232 -0.041,0.012 c 0.38,-3.953 -2.334,-8.221 -7.99,-11.487 -9.701,-5.601 -24.513,-6.215 -32.915,-1.364 l -66.657,38.485 c -3.989,2.303 -5.84,5.44 -5.651,8.699 L 0,-94.345 Z"
             style="fill:#4985fe;fill-opacity:1;fill-rule:nonzero;stroke:none"
             id="path34" /></g><g
           id="g36"
           transform="translate(605.6677,836.8818)"><path
             d="m 0,0 66.658,-38.484 c 8.401,-4.851 23.213,-4.238 32.914,1.364 9.702,5.6 10.765,14.152 2.364,19.003 L 35.278,20.368 C 26.876,25.219 12.065,24.604 2.363,19.004 -7.338,13.402 -8.402,4.851 0,0"
             style="fill:#00b4fe;fill-opacity:1;fill-rule:nonzero;stroke:none"
             id="path38" /></g><g
           id="g40"
           transform="translate(669.6831,862.5459)"><path
             d="M 0,0 C 0,-0.25 -0.009,-0.498 -0.019,-0.746 V 0 Z"
             style="fill:#404380;fill-opacity:1;fill-rule:nonzero;stroke:none"
             id="path42" /></g><g
           id="g44"
           transform="translate(694.353,816.3379)"><path
             d="m 0,0 c -0.449,1.22 -1.446,2.348 -3.019,3.256 -1.686,0.973 -3.818,1.542 -6.102,1.771 v 23.219 c 0.017,0.564 0.033,1.127 0.033,1.705 0,24.542 -14.922,53.054 -33.329,63.681 -18.407,10.627 -33.329,-0.653 -33.329,-25.196 0,-0.29 0.012,-0.582 0.017,-0.872 V 37.618 l -0.017,0.071 V 24.436 l 0.037,-0.039 c 0.039,-1.756 1.12,-3.427 3.293,-4.682 2.368,-1.367 5.595,-1.974 8.932,-1.88 0.068,-0.001 0.135,10e-4 0.202,0.003 1.27,0.047 2.551,0.186 3.807,0.436 2.199,0.439 4.317,1.182 6.134,2.231 0.127,0.073 0.236,0.151 0.358,0.225 5.3,3.258 5.792,8.029 1.012,10.789 -1.574,0.909 -3.528,1.483 -5.64,1.743 -0.146,0.017 -0.298,0.021 -0.446,0.036 v 24.925 c 0,11.516 7.002,16.809 15.64,11.823 8.637,-4.987 15.639,-18.365 15.639,-29.882 0,-0.289 -0.007,-0.571 -0.016,-0.852 V 7.539 c 0,-0.336 0.014,-0.675 0.035,-1.016 v -10.2 l 0.028,-0.029 c -0.027,-1.813 1.028,-3.549 3.267,-4.841 2.348,-1.355 5.54,-1.96 8.847,-1.881 0.08,-0.002 0.159,-0.004 0.239,-0.003 0.197,0.007 0.395,0.027 0.594,0.039 0.025,0.003 0.051,0.003 0.076,0.007 3.292,0.206 6.633,1.077 9.319,2.628 0.253,0.146 0.483,0.298 0.714,0.45 C -0.384,-5.152 0.884,-2.399 0,0"
             style="fill:#00e1fe;fill-opacity:1;fill-rule:nonzero;stroke:none"
             id="path46" /></g><g
           id="g48"
           transform="translate(636.8274,771.8223)"><path
             d="m 0,0 5.5,1.985 4.988,-14.833 -8.72,-4.911 -7.616,10.423 z"
             style="fill:#475cb2;fill-opacity:1;fill-rule:nonzero;stroke:none"
             id="path50" /></g><g
           id="g52"
           transform="translate(634.8635,777.3379)"><path
             d="M 0,0 C 0,2.748 1.671,4.012 3.732,2.821 5.793,1.632 7.464,-1.562 7.464,-4.31 7.464,-6.204 6.67,-7.393 5.5,-7.558 v -8.463 c 0,-1.302 -0.791,-1.901 -1.768,-1.337 -0.976,0.564 -1.768,2.077 -1.768,3.379 v 8.463 C 0.795,-4.001 0,-1.895 0,0 m -12.628,2.178 c 0,-12.048 7.325,-26.043 16.36,-31.26 9.036,-5.217 16.361,0.32 16.361,12.368 0,12.048 -7.325,26.043 -16.361,31.26 -9.035,5.217 -16.36,-0.32 -16.36,-12.368"
             style="fill:#00e1fe;fill-opacity:1;fill-rule:nonzero;stroke:none"
             id="path54" /></g><g
           id="g56"
           transform="translate(645.6753,845.0361)"><path
             d="m 0,0 -0.005,-0.002 c 0.001,0.064 0.004,0.125 0.004,0.189 0,0.146 -0.012,0.295 -0.016,0.441 v 32.204 c 0,4.27 0.966,7.678 2.618,10.03 -6.869,1.766 -11.98,-3.505 -11.98,-13.338 V -2.679 c 0.004,-0.146 0.017,-0.296 0.017,-0.44 0,-2.099 -0.415,-3.826 -1.136,-5.117 -0.961,-1.727 -2.476,-2.659 -4.299,-2.628 l -0.016,-0.021 c 0,0 2.805,-0.063 5.988,0.945 5.009,1.586 6.886,3.628 7.881,5.063 0.994,1.436 0.945,2.948 0.945,2.948 z"
             style="fill:#2e50a5;fill-opacity:1;fill-rule:nonzero;stroke:none"
             id="path58" /></g><g
           id="g60"
           transform="translate(694.6265,814.8408)"><path
             d="M 0,0 -0.002,1.929 -0.008,1.927 C -0.007,1.993 0,2.054 0,2.121 0,2.412 -0.017,2.707 -0.033,3.003 V 33.051 C -0.017,33.613 0,34.177 0,34.755 c 0,24.543 -14.922,53.054 -33.329,63.681 -6.936,4.004 -13.376,4.895 -18.711,3.141 l -10e-4,0.002 -9.459,-3.34 0.008,-0.003 c 5.353,1.795 11.826,0.92 18.802,-3.107 18.407,-10.627 33.328,-39.139 33.328,-63.681 0,-0.578 -0.016,-1.141 -0.033,-1.705 V -0.305 c 0.016,-0.295 0.033,-0.591 0.033,-0.882 0,-4.905 -2.245,-7.814 -5.439,-7.751 l -0.014,-0.018 c 0,0 2.806,-0.064 5.988,0.944 5.009,1.586 6.887,3.628 7.882,5.064 C 0.05,-1.512 0,0 0,0"
             style="fill:#2e50a5;fill-opacity:1;fill-rule:nonzero;stroke:none"
             id="path62" /></g><g
           id="g64"
           transform="translate(1249.4912,783.25)"><path
             d="m 0,0 -125.24,72.307 c -15.307,8.838 -42.292,7.718 -59.968,-2.486 l -96.226,-47.522 c -5.219,-3.014 -9.028,-6.5 -11.464,-10.14 l -3.142,0.388 -0.025,-10.036 0.03,0.07 c 0.05,-5.596 3.416,-10.933 10.296,-14.904 l 139.156,-80.342 c 15.307,-8.837 42.292,-7.719 59.967,2.486 l 82.311,55.556 C 13.37,-24.418 15.307,-8.838 0,0"
             style="fill:#121633;fill-opacity:1;fill-rule:nonzero;stroke:none"
             id="path66" /></g><g
           id="g68"
           transform="translate(1102.9077,701.2197)"><path
             d="m 0,0 -139.155,80.341 c -15.307,8.838 -13.37,24.418 4.305,34.623 l 96.226,47.521 c 17.675,10.205 44.661,11.324 59.968,2.486 L 146.583,92.664 c 15.308,-8.838 13.37,-24.418 -4.305,-34.622 L 59.968,2.485 C 42.292,-7.72 15.307,-8.838 0,0"
             style="fill:#9cabbe;fill-opacity:1;fill-rule:nonzero;stroke:none"
             id="path70" /></g><g
           id="g72"
           transform="translate(1440.9971,1200.5117)"><path
             d="m 0,0 -115.982,66.961 -65.742,37.956 -42.463,24.517 -129.885,74.988 -196.365,113.372 c -8.139,4.699 -15.537,4.845 -21.149,1.363 l -0.031,0.045 -26.859,-15.448 16.342,-23.783 v -385.566 -56.178 c 0,-23.339 14.191,-50.456 31.697,-60.563 l 519.56,-299.966 24.228,-35.26 26.698,15.383 -0.005,0.011 c 7.109,3.645 11.652,12.8 11.652,25.999 v 56.179 399.428 C 31.696,-37.221 17.505,-10.106 0,0"
             style="fill:#aeb9ca;fill-opacity:1;fill-rule:nonzero;stroke:none"
             id="path74" /></g><g
           id="g76"
           transform="translate(863.2212,962.4434)"><path
             d="m 0,0 550.437,-317.795 c 17.506,-10.106 31.697,0.621 31.697,23.962 v 56.178 L -31.696,116.739 V 60.562 C -31.696,37.222 -17.505,10.107 0,0"
             style="fill:#d0e8fe;fill-opacity:1;fill-rule:nonzero;stroke:none"
             id="path78" /></g><g
           id="g80"
           transform="translate(1189.4722,1314.2119)"><path
             d="m 0,0 -191.26,-331.266 42.463,-24.516 191.26,331.265 z"
             style="fill:#7d90aa;fill-opacity:1;fill-rule:nonzero;stroke:none"
             id="path82" /></g><g
           id="g84"
           transform="translate(863.2212,1502.5723)"><path
             d="M 0,0 C -17.505,10.107 -31.696,-0.621 -31.696,-23.961 V -423.39 l 36.801,-21.247 191.26,331.266 z"
             style="fill:#7d90aa;fill-opacity:1;fill-rule:nonzero;stroke:none"
             id="path86" /></g><g
           id="g88"
           transform="translate(1445.355,1124.2158)"><path
             d="M 0,0 C 0,23.341 -14.191,50.455 -31.696,60.562 L -147.679,127.524 -338.938,-203.741 0,-399.428 Z"
             style="fill:#7d90aa;fill-opacity:1;fill-rule:nonzero;stroke:none"
             id="path90" /></g><g
           id="g92"
           transform="translate(1059.5864,1389.2012)"><path
             d="m 0,0 -191.26,-331.266 129.886,-74.989 191.26,331.266 z"
             style="fill:#9cabbe;fill-opacity:1;fill-rule:nonzero;stroke:none"
             id="path94" /></g><g
           id="g96"
           transform="translate(1231.9351,1289.6953)"><path
             d="m 0,0 -191.26,-331.266 65.741,-37.955 191.26,331.266 z"
             style="fill:#9cabbe;fill-opacity:1;fill-rule:nonzero;stroke:none"
             id="path98" /></g><g
           id="g100"
           transform="translate(1076.2285,1172.1934)"><path
             d="m 0,0 c -5.569,3.215 -10.083,-0.198 -10.083,-7.623 0,-7.426 4.514,-16.052 10.083,-19.267 5.569,-3.215 10.083,0.198 10.083,7.623 C 10.083,-11.842 5.569,-3.216 0,0"
             style="fill:#00febe;fill-opacity:1;fill-rule:nonzero;stroke:none"
             id="path102" /></g><g
           id="g104"
           transform="translate(1117.7026,1148.248)"><path
             d="m 0,0 c -5.569,3.215 -10.083,-0.198 -10.083,-7.623 0,-7.426 4.514,-16.052 10.083,-19.267 5.569,-3.215 10.083,0.198 10.083,7.623 C 10.083,-11.842 5.569,-3.216 0,0"
             style="fill:#00febe;fill-opacity:1;fill-rule:nonzero;stroke:none"
             id="path106" /></g><g
           id="g108"
           transform="translate(1159.1772,1124.3027)"><path
             d="m 0,0 c -5.569,3.215 -10.083,-0.198 -10.083,-7.623 0,-7.426 4.514,-16.052 10.083,-19.267 5.569,-3.215 10.083,0.198 10.083,7.623 C 10.083,-11.841 5.569,-3.216 0,0"
             style="fill:#00febe;fill-opacity:1;fill-rule:nonzero;stroke:none"
             id="path110" /></g><g
           id="g112"
           transform="translate(1200.6514,1100.3574)"><path
             d="m 0,0 c -5.569,3.215 -10.083,-0.198 -10.083,-7.623 0,-7.426 4.514,-16.052 10.083,-19.267 5.569,-3.215 10.084,0.198 10.084,7.623 C 10.084,-11.842 5.569,-3.216 0,0"
             style="fill:#00febe;fill-opacity:1;fill-rule:nonzero;stroke:none"
             id="path114" /></g><g
           id="g116"
           transform="translate(661.0154,1502.3809)"><path
             d="m 0,0 c 5.735,23.082 23.985,31.848 45.628,19.352 11.384,-6.573 21.83,-17.947 30.012,-31.573 0.082,38.119 23.309,55.617 51.954,39.079 24.989,-14.427 45.85,-49.996 50.825,-84.211 0.378,-0.207 0.753,-0.396 1.133,-0.616 21.422,-12.368 39.527,-41.728 45.456,-71.13 2.353,-0.599 4.807,-1.605 7.335,-3.064 17.187,-9.923 31.119,-36.543 31.119,-59.459 0,-22.915 -13.932,-33.448 -31.119,-23.525 l -52.791,30.479 -133.924,77.32 -36.12,20.855 C -7.679,-76.57 -21.611,-49.95 -21.611,-27.034 -21.611,-8.541 -12.535,1.879 0,0"
             style="fill:#2940c1;fill-opacity:1;fill-rule:nonzero;stroke:none"
             id="path118" /></g><g
           id="g120"
           transform="translate(628.2026,1487.8164)"><path
             d="m 0,0 21.611,12.482 5.233,11.949 20.371,11.898 39.337,-34.756 17.349,29.614 21.563,12.401 159.559,-246.086 -21.822,-12.572 z"
             style="fill:#2940c1;fill-opacity:1;fill-rule:nonzero;stroke:none"
             id="path122" /></g><g
           id="g124"
           transform="translate(638.1831,1489.2236)"><path
             d="m 0,0 c 5.735,23.082 23.985,31.848 45.628,19.352 11.384,-6.573 21.83,-17.947 30.012,-31.573 0.082,38.119 23.309,55.617 51.954,39.079 24.989,-14.427 45.85,-49.996 50.824,-84.211 0.378,-0.207 0.754,-0.396 1.134,-0.616 21.422,-12.368 39.527,-41.727 45.456,-71.13 2.353,-0.599 4.807,-1.604 7.335,-3.064 17.187,-9.923 31.119,-36.543 31.119,-59.459 0,-22.915 -13.932,-33.448 -31.119,-23.525 l -52.791,30.479 -133.924,77.32 -36.12,20.855 C -7.679,-76.57 -21.611,-49.95 -21.611,-27.034 -21.611,-8.541 -12.535,1.879 0,0"
             style="fill:#00b4fe;fill-opacity:1;fill-rule:nonzero;stroke:none"
             id="path126" /></g></g></g><g
       id="g128"><g
         id="g130"
         clip-path="url(#clipPath134)"><path
           d="m 1327.963,920.818 h 448.195 V 268.416 h -448.195 z"
           style="fill:#bdbfc7;fill-opacity:1;fill-rule:nonzero;stroke:none"
           id="path136" /></g></g><g
       id="g138"><g
         id="g140"
         clip-path="url(#clipPath144)"><path
           d="m 1322.405,918.343 h 448.196 V 265.94 h -448.196 z"
           style="fill:#121633;fill-opacity:1;fill-rule:nonzero;stroke:none"
           id="path146" /></g></g><g
       id="g148"><g
         id="g150"
         clip-path="url(#clipPath154)"><path
           d="m 1532.462,794.577 h 28.083 v -31.793 h -28.083 z"
           style="fill:#feffff;fill-opacity:1;fill-rule:nonzero;stroke:none"
           id="path156" /></g></g><g
       id="g158"><g
         id="g160"
         clip-path="url(#clipPath164)"><path
           d="m 1342.08,889.804 h 76.412 V 739.4 h -76.412 z"
           style="fill:#7d90aa;fill-opacity:1;fill-rule:nonzero;stroke:none"
           id="path166" /></g></g><g
       id="g168"><g
         id="g170"
         clip-path="url(#clipPath174)"><path
           d="m 1391.591,773.501 h 219.214 V 463.098 h -219.214 z"
           style="fill:#7d90aa;fill-opacity:1;fill-rule:nonzero;stroke:none"
           id="path176" /></g></g><g
       id="g178"><g
         id="g180"
         clip-path="url(#clipPath184)"><path
           d="m 1512.331,703.792 h 238.598 V 294.478 h -238.598 z"
           style="fill:#7d90aa;fill-opacity:1;fill-rule:nonzero;stroke:none"
           id="path186" /></g></g><g
       id="g188"><g
         id="g190"
         clip-path="url(#clipPath194)"><g
           id="g196"><g
             id="g198" /><g
             id="g210"><g
               clip-path="url(#clipPath202)"
               opacity="0.399994"
               id="g208"><g
                 transform="translate(1408.541,847.2275)"
                 id="g206"><path
                   d="m 0,0 -56.513,-97.879 v -220.362 l 49.512,-28.584 151.934,263.148 z"
                   style="fill:#000000;fill-opacity:1;fill-rule:evenodd;stroke:none"
                   id="path204" /></g></g></g></g></g></g><g
       id="g212"><g
         id="g214"
         clip-path="url(#clipPath218)"><path
           d="m 1342.079,857.177 h 221.344 V 490.453 h -221.344 z"
           style="fill:#aeb9ca;fill-opacity:1;fill-rule:nonzero;stroke:none"
           id="path220" /><g
           id="g222"><g
             id="g224" /><g
             id="g232"><g
               clip-path="url(#clipPath228)"
               opacity="0.399994"
               id="g230" /></g></g></g></g><g
       id="g234"><g
         id="g236"
         clip-path="url(#clipPath240)"><g
           id="g242"><g
             id="g244" /><g
             id="g252"><g
               clip-path="url(#clipPath248)"
               opacity="0.399994"
               id="g250" /></g></g></g></g><g
       id="g254"><g
         id="g256"
         clip-path="url(#clipPath260)"><path
           d="m 1438.974,746.145 h 245.187 v -325.4 h -245.187 z"
           style="fill:#aeb9ca;fill-opacity:1;fill-rule:nonzero;stroke:none"
           id="path262" /></g></g><g
       id="g264"><g
         id="g266"
         clip-path="url(#clipPath270)"><path
           d="m 1474.049,645.814 h 37.335 v -45.239 h -37.335 z"
           style="fill:#fffeff;fill-opacity:1;fill-rule:nonzero;stroke:none"
           id="path272" /></g></g><g
       id="g274"><g
         id="g276"
         clip-path="url(#clipPath280)"><path
           d="m 1509.909,625.111 h 37.334 v -45.239 h -37.334 z"
           style="fill:#fffeff;fill-opacity:1;fill-rule:nonzero;stroke:none"
           id="path282" /></g></g><g
       id="g284"><g
         id="g286"
         clip-path="url(#clipPath290)"><path
           d="M 1545.767,604.409 H 1583.1 V 559.17 h -37.333 z"
           style="fill:#fffeff;fill-opacity:1;fill-rule:nonzero;stroke:none"
           id="path292" /></g></g><g
       id="g294"><g
         id="g296"
         clip-path="url(#clipPath300)"><path
           d="m 1581.625,583.707 h 37.333 v -45.239 h -37.333 z"
           style="fill:#fffeff;fill-opacity:1;fill-rule:nonzero;stroke:none"
           id="path302" /></g></g><g
       id="g304"><g
         id="g306"
         clip-path="url(#clipPath310)"><path
           d="m 1382.674,493.606 h 323.653 V 298.335 h -323.653 z"
           style="fill:#4b4e85;fill-opacity:1;fill-rule:nonzero;stroke:none"
           id="path312" /></g></g><g
       id="g314"><g
         id="g316"
         clip-path="url(#clipPath320)"><g
           id="g322"><g
             id="g324" /><g
             id="g334"><g
               clip-path="url(#clipPath328)"
               opacity="0.399994"
               id="g332"><path
                 d="m 990.579,517.201 h 775.166 V 61.248 H 990.579 Z"
                 style="fill:#4b4e85;fill-opacity:1;fill-rule:nonzero;stroke:none"
                 id="path330" /></g></g></g></g></g><g
       id="g336"><g
         id="g338"
         clip-path="url(#clipPath342)"><path
           d="m 990.578,527.912 h 775.167 V 71.958 H 990.578 Z"
           style="fill:#edf0f9;fill-opacity:1;fill-rule:nonzero;stroke:none"
           id="path344" /></g></g><g
       id="g346"><g
         id="g348"
         clip-path="url(#clipPath352)"><g
           id="g354"><g
             id="g356" /><g
             id="g366"><g
               clip-path="url(#clipPath360)"
               opacity="0.199997"
               id="g364"><path
                 d="m 1130.257,336.922 h 304.684 V 152.603 h -304.684 z"
                 style="fill:#7579c0;fill-opacity:1;fill-rule:nonzero;stroke:none"
                 id="path362" /></g></g></g></g></g><g
       id="g368"><g
         id="g370"
         clip-path="url(#clipPath374)"><g
           id="g376"><g
             id="g378" /><g
             id="g388"><g
               clip-path="url(#clipPath382)"
               opacity="0.300003"
               id="g386"><path
                 d="m 1165.741,228.132 h 80.77 v -55.043 h -80.77 z"
                 style="fill:#121633;fill-opacity:1;fill-rule:nonzero;stroke:none"
                 id="path384" /></g></g></g></g></g><g
       id="g390"><g
         id="g392"
         clip-path="url(#clipPath396)"><g
           id="g398"><g
             id="g400" /><g
             id="g410"><g
               clip-path="url(#clipPath404)"
               opacity="0.399994"
               id="g408"><path
                 d="m 1174.69,496.638 h 536.886 V 178.257 H 1174.69 Z"
                 style="fill:#7579c0;fill-opacity:1;fill-rule:nonzero;stroke:none"
                 id="path406" /></g></g></g></g></g><g
       id="g412"><g
         id="g414"
         clip-path="url(#clipPath418)"><g
           id="g420"
           transform="translate(1254.0664,1542.4697)"><path
             d="m 0,0 c 0,-39.526 -24.032,-57.694 -53.677,-40.578 -29.644,17.115 -53.677,63.032 -53.677,102.558 0,39.527 24.033,57.695 53.677,40.58 C -24.032,85.444 0,39.526 0,0"
             style="fill:#7579c0;fill-opacity:1;fill-rule:nonzero;stroke:none"
             id="path422" /></g><g
           id="g424"
           transform="translate(1252.7002,1595.5254)"><path
             d="m 0,0 -61.893,-33.513 -23.734,40.257 -12.774,-6.917 23.734,-40.256 12.774,-21.666 12.774,6.916 61.893,33.512 z"
             style="fill:#7579c0;fill-opacity:1;fill-rule:nonzero;stroke:none"
             id="path426" /></g><g
           id="g428"
           transform="translate(1311.8555,1520.2578)"><path
             d="m 0,0 c -1.353,9.214 -6.997,18.854 -13.71,22.726 l -18.321,10.58 c -2.003,12.084 -5.222,24.234 -9.488,36.057 l 12.947,9.784 c 4.74,3.586 5.354,13.048 1.851,22.305 -0.527,1.389 -1.14,2.775 -1.851,4.133 l -3.855,7.367 -0.003,0.003 -3.853,7.363 c -0.713,1.363 -1.485,2.626 -2.3,3.797 -5.365,7.717 -12.615,11.134 -17.36,7.743 l -0.004,0.03 -13.811,-7.948 -0.524,-0.28 -0.312,0.347 C -77.205,132.921 -84.38,141 -91.993,147.875 V 172.3 c 0,8.95 -4.783,19.239 -11.107,24.692 -0.942,0.812 -1.915,1.522 -2.913,2.095 l -5.453,3.15 -5.451,3.148 c -1,0.577 -1.974,0.99 -2.914,1.266 -2.594,0.759 -4.9,0.354 -6.752,-0.946 l -0.03,0.046 -13.356,-7.756 -5.816,-25.975 -0.892,-0.12 c -2.461,-0.141 -4.88,-0.412 -7.197,-0.95 l -12.945,24.733 c -4.742,9.058 -12.104,14.129 -17.529,12.588 -0.678,-0.191 -1.318,-0.507 -1.926,-0.91 l -0.017,0.02 -13.953,-8.063 3.984,-57.748 -5.195,-10.448 -7.765,4.483 c -3.639,2.102 -6.935,2.089 -9.432,0.472 l -0.082,0.024 -14.245,-8.205 9.738,-4.087 v -6.074 -7.27 c 0,-1.33 0.111,-2.693 0.31,-4.062 1.351,-9.214 6.997,-18.849 13.711,-22.726 l 7.473,-4.315 5.487,-50.883 0.58,-2.563 c -3.475,-4.249 -3.668,-12.671 -0.529,-20.965 0.526,-1.388 1.14,-2.774 1.851,-4.134 l 7.66,-14.633 4.612,-20.405 14.127,8.156 0.462,0.251 21.712,-24.214 33.826,-58.368 14.502,8.392 0.016,0.082 c 3.294,1.525 5.448,5.572 5.448,11.543 v 14.205 l 8.088,1.07 32.281,-36.523 13.924,8.072 -0.008,0.023 c 0.493,0.212 0.974,0.466 1.425,0.805 l 3.853,2.914 0.003,0.002 3.855,2.914 c 0.711,0.537 1.324,1.213 1.851,1.996 3.503,5.212 2.889,15.382 -1.851,24.441 l -12.947,24.735 c 1.938,3.134 3.631,6.624 5.122,10.375 l 0.074,0.074 17.247,-5.002 14.523,8.363 -0.023,0.029 c 2.27,1.314 3.926,3.907 4.576,7.581 0.2,1.139 0.31,2.372 0.31,3.701 v 7.272 7.27 C 0.31,-2.729 0.2,-1.369 0,0"
             style="fill:#a1406c;fill-opacity:1;fill-rule:nonzero;stroke:none"
             id="path430" /></g><g
           id="g432"
           transform="translate(1297.0078,1511.6973)"><path
             d="m 0,0 c -1.351,9.214 -6.997,18.852 -13.71,22.728 l -18.32,10.576 c -2.002,12.086 -5.223,24.236 -9.488,36.058 l 12.946,9.786 c 4.741,3.584 5.355,13.046 1.851,22.303 -0.526,1.39 -1.14,2.776 -1.851,4.135 l -3.854,7.364 -0.003,0.006 -3.855,7.363 c -0.711,1.36 -1.484,2.624 -2.298,3.795 -5.426,7.804 -12.789,11.237 -17.529,7.653 l -12.946,-9.787 c -7.02,9.74 -14.738,18.49 -22.935,25.893 v 24.426 c 0,8.95 -4.783,19.24 -11.108,24.692 -0.941,0.812 -1.914,1.521 -2.912,2.097 l -5.453,3.148 -5.452,3.148 c -0.999,0.576 -1.972,0.991 -2.913,1.266 -6.325,1.852 -11.108,-2.916 -11.108,-11.866 v -24.426 c -8.197,2.062 -15.916,2.225 -22.936,0.591 l -12.945,24.735 c -4.741,9.058 -12.103,14.127 -17.529,12.588 -0.814,-0.231 -1.587,-0.603 -2.299,-1.14 l -7.711,-5.83 c -0.711,-0.538 -1.325,-1.214 -1.851,-1.996 -3.503,-5.212 -2.89,-15.383 1.851,-24.441 l 12.946,-24.735 c -4.265,-6.897 -7.485,-15.329 -9.488,-25.102 l -18.32,10.576 c -6.713,3.876 -12.359,0.759 -13.71,-6.895 -0.2,-1.139 -0.311,-2.372 -0.311,-3.704 v -7.27 -7.27 c 0,-1.331 0.111,-2.692 0.311,-4.063 1.351,-9.213 6.997,-18.85 13.71,-22.726 L -190.9,73.1 c 2.003,-12.085 5.223,-24.237 9.488,-36.059 l -12.946,-9.786 c -4.741,-3.584 -5.354,-13.046 -1.851,-22.303 0.526,-1.389 1.14,-2.774 1.851,-4.135 l 7.711,-14.733 c 0.712,-1.359 1.485,-2.624 2.299,-3.795 5.426,-7.805 12.788,-11.236 17.529,-7.652 l 12.945,9.787 c 7.02,-9.739 14.739,-18.49 22.936,-25.893 v -24.427 c 0,-8.95 4.783,-19.24 11.108,-24.692 0.941,-0.811 1.914,-1.519 2.913,-2.097 l 5.452,-3.147 5.453,-3.148 c 0.998,-0.577 1.971,-0.992 2.912,-1.267 6.325,-1.852 11.108,2.915 11.108,11.866 v 24.426 c 8.197,-2.062 15.915,-2.224 22.935,-0.59 l 12.946,-24.735 c 4.74,-9.059 12.103,-14.127 17.529,-12.589 0.814,0.231 1.587,0.603 2.298,1.141 l 3.855,2.914 0.003,10e-4 3.854,2.915 c 0.711,0.538 1.325,1.213 1.851,1.996 3.504,5.212 2.89,15.382 -1.851,24.441 l -12.946,24.734 c 4.265,6.897 7.486,15.33 9.488,25.103 l 18.32,-10.577 c 6.713,-3.876 12.359,-0.758 13.71,6.895 0.201,1.139 0.311,2.372 0.311,3.703 v 7.271 7.27 C 0.311,-2.73 0.201,-1.37 0,0"
             style="fill:#fe65a9;fill-opacity:1;fill-rule:nonzero;stroke:none"
             id="path434" /></g><g
           id="g436"
           transform="translate(1239.2197,1533.9092)"><path
             d="m 0,0 c 0,-39.527 -24.032,-57.694 -53.677,-40.579 -29.645,17.115 -53.677,63.033 -53.677,102.559 0,39.527 24.032,57.694 53.677,40.579 C -24.032,85.443 0,39.526 0,0"
             style="fill:#ffffff;fill-opacity:1;fill-rule:nonzero;stroke:none"
             id="path438" /></g><g
           id="g440"
           transform="translate(1237.853,1586.9639)"><path
             d="m 0,0 -61.893,-33.513 -23.734,40.257 -12.774,-6.916 23.734,-40.256 12.774,-21.667 12.774,6.916 61.893,33.512 z"
             style="fill:#00e9be;fill-opacity:1;fill-rule:nonzero;stroke:none"
             id="path442" /></g><g
           id="g444"
           transform="translate(844.0386,1078.1357)"><path
             d="m 0,0 -38.826,22.417 c -0.86,0.496 -1.563,1.84 -1.563,2.986 0,1.146 0.703,1.678 1.563,1.182 L 0,4.168 C 0.859,3.672 1.563,2.328 1.563,1.182 1.563,0.036 0.859,-0.496 0,0"
             style="fill:#121633;fill-opacity:1;fill-rule:nonzero;stroke:none"
             id="path446" /></g><g
           id="g448"
           transform="translate(795.0942,1105.0781)"><path
             d="M 0,0 V 0 C -1.402,0.81 -2.55,3.002 -2.55,4.872 -2.55,6.742 -1.402,7.609 0,6.8 1.403,5.99 2.55,3.798 2.55,1.928 2.55,0.058 1.403,-0.81 0,0"
             style="fill:#121633;fill-opacity:1;fill-rule:nonzero;stroke:none"
             id="path450" /></g><g
           id="g452"
           transform="translate(897.1724,771.3984)"><path
             d="m 0,0 2.802,-1.618 v 255.331 0.001 26.973 c 0,10.258 -6.295,22.288 -13.99,26.73 l -122.718,70.852 c -3.597,2.077 -6.877,2.121 -9.363,0.552 l -0.008,0.024 -13.624,-7.872 9.004,-26.799 V 340.72 85.388 58.415 c 0,-10.26 6.296,-22.289 13.991,-26.731 l 112.913,-65.191 4.874,-14.507 13.909,8.041 -0.002,0.006 c 3.059,1.662 5.014,5.662 5.014,11.376 v 26.973 z"
             style="fill:#7d90aa;fill-opacity:1;fill-rule:nonzero;stroke:none"
             id="path454" /></g><g
           id="g456"
           transform="translate(886.1782,1044.1055)"><path
             d="m 0,0 c 0,10.26 -6.296,22.289 -13.991,26.731 l -122.717,70.852 c -7.695,4.442 -13.991,-0.317 -13.991,-10.577 V 60.034 L 0,-26.972 Z"
             style="fill:#aeb9ca;fill-opacity:1;fill-rule:nonzero;stroke:none"
             id="path458" /></g><g
           id="g460"
           transform="translate(735.4795,821.835)"><path
             d="m 0,0 c 0,-10.26 6.296,-22.289 13.99,-26.731 l 122.718,-70.852 c 7.695,-4.442 13.991,0.317 13.991,10.577 v 26.972 L 0,26.972 Z"
             style="fill:#aeb9ca;fill-opacity:1;fill-rule:nonzero;stroke:none"
             id="path462" /></g><g
           id="g464"
           transform="translate(830.2422,1070.1572)"><path
             d="m 0,0 -38.827,22.417 c -0.859,0.496 -1.563,1.84 -1.563,2.985 0,1.147 0.704,1.679 1.563,1.182 L 0,4.168 C 0.859,3.672 1.562,2.328 1.562,1.182 1.562,0.035 0.859,-0.496 0,0"
             style="fill:#4b4e85;fill-opacity:1;fill-rule:nonzero;stroke:none"
             id="path466" /></g><g
           id="g468"
           transform="translate(781.2979,1097.0996)"><path
             d="M 0,0 V 0 C -1.403,0.81 -2.55,3.002 -2.55,4.872 -2.55,6.742 -1.403,7.609 0,6.8 1.402,5.99 2.55,3.797 2.55,1.928 2.55,0.058 1.402,-0.811 0,0"
             style="fill:#4b4e85;fill-opacity:1;fill-rule:nonzero;stroke:none"
             id="path470" /></g><g
           id="g472"
           transform="translate(794.854,1069.8594)"><path
             d="m 0,0 -59.375,-102.838 v -62.415 l 86.402,149.649 z"
             style="fill:#36475d;fill-opacity:1;fill-rule:nonzero;stroke:none"
             id="path474" /></g><g
           id="g476"
           transform="translate(886.1782,1017.1328)"><path
             d="M 0,0 -22.454,12.965 -133.018,-178.534 0,-255.332 Z"
             style="fill:#36475d;fill-opacity:1;fill-rule:nonzero;stroke:none"
             id="path478" /></g><g
           id="g480"
           transform="translate(735.4795,1104.1396)"><path
             d="M 0,0 V -137.118 L 59.375,-34.28 Z"
             style="fill:#7d90aa;fill-opacity:1;fill-rule:nonzero;stroke:none"
             id="path482" /></g><g
           id="g484"
           transform="translate(821.8809,1054.2549)"><path
             d="m 0,0 -86.401,-149.648 v -55.8 l 17.681,-10.208 110.563,191.499 z"
             style="fill:#7d90aa;fill-opacity:1;fill-rule:nonzero;stroke:none"
             id="path486" /></g><g
           id="g488"
           transform="translate(782.1016,955.7646)"><path
             d="m 0,0 c -2.572,1.484 -4.656,-0.092 -4.656,-3.521 0,-3.428 2.084,-7.412 4.656,-8.896 2.572,-1.484 4.656,0.091 4.656,3.521 C 4.656,-5.468 2.572,-1.485 0,0"
             style="fill:#f7f8fa;fill-opacity:1;fill-rule:nonzero;stroke:none"
             id="path490" /></g><g
           id="g492"
           transform="translate(801.2529,944.707)"><path
             d="m 0,0 c -2.572,1.485 -4.656,-0.091 -4.656,-3.52 0,-3.429 2.084,-7.412 4.656,-8.897 2.572,-1.484 4.656,0.092 4.656,3.521 C 4.656,-5.468 2.572,-1.484 0,0"
             style="fill:#f7f8fa;fill-opacity:1;fill-rule:nonzero;stroke:none"
             id="path494" /></g><g
           id="g496"
           transform="translate(820.4048,933.6504)"><path
             d="m 0,0 c -2.572,1.484 -4.656,-0.092 -4.656,-3.521 0,-3.428 2.084,-7.412 4.656,-8.896 2.571,-1.485 4.656,0.091 4.656,3.521 C 4.656,-5.468 2.571,-1.485 0,0"
             style="fill:#f7f8fa;fill-opacity:1;fill-rule:nonzero;stroke:none"
             id="path498" /></g><g
           id="g500"
           transform="translate(839.5562,922.5928)"><path
             d="m 0,0 c -2.571,1.484 -4.656,-0.091 -4.656,-3.52 0,-3.429 2.085,-7.412 4.656,-8.897 2.571,-1.484 4.656,0.092 4.656,3.521 C 4.656,-5.468 2.571,-1.484 0,0"
             style="fill:#f7f8fa;fill-opacity:1;fill-rule:nonzero;stroke:none"
             id="path502" /></g><g
           id="g504"
           transform="translate(830.8872,604.5566)"><path
             d="m 0,0 202.674,-117.015 c 9.795,-5.655 17.809,0.404 17.809,13.464 v 165.28 c 0,13.06 -8.014,28.373 -17.809,34.027 L 0,212.771 c -9.795,5.655 -17.809,-0.404 -17.809,-13.463 V 34.027 C -17.809,20.967 -9.795,5.655 0,0"
             style="fill:#515aff;fill-opacity:1;fill-rule:nonzero;stroke:none"
             id="path506" /></g><g
           id="g508"
           transform="translate(1009.812,466.001)"><path
             d="m 0,0 35.343,20.61 -225.627,331.78 -39.972,-23.059"
             style="fill:#515aff;fill-opacity:1;fill-rule:nonzero;stroke:none"
             id="path510" /></g><g
           id="g512"
           transform="translate(994.6753,664.9902)"><path
             d="M 0,0 -160.358,92.583 V 240.862 L 0,148.279 Z"
             style="fill:#f7f8fa;fill-opacity:1;fill-rule:nonzero;stroke:none"
             id="path514" /></g><g
           id="g516"
           transform="translate(880.5503,799.791)"><path
             d="m 0,0 c 8.934,-5.158 16.244,0.368 16.244,12.28 v 7.728 c 0,11.913 -7.31,25.88 -16.244,31.038 -8.934,5.158 -16.244,-0.368 -16.244,-12.28 V 31.038 C -16.244,19.125 -8.934,5.158 0,0"
             style="fill:#db53bc;fill-opacity:1;fill-rule:nonzero;stroke:none"
             id="path518" /></g><g
           id="g520"
           transform="translate(880.5503,799.5586)"><path
             d="m 0,0 c -14.186,8.19 -25.685,-3.238 -25.685,-25.526 l 51.37,-29.659 C 25.685,-32.896 14.186,-8.189 0,0"
             style="fill:#db53bc;fill-opacity:1;fill-rule:nonzero;stroke:none"
             id="path522" /></g><g
           id="g524"
           transform="translate(969.0771,783.6152)"><path
             d="m 0,0 -49.323,28.477 c -1.097,0.633 -1.995,2.349 -1.995,3.812 0,1.464 0.898,2.143 1.995,1.509 L 0,5.321 C 1.098,4.687 1.996,2.972 1.996,1.509 1.996,0.045 1.098,-0.634 0,0"
             style="fill:#db53bc;fill-opacity:1;fill-rule:nonzero;stroke:none"
             id="path526" /></g><g
           id="g528"
           transform="translate(969.0771,718.8809)"><path
             d="m 0,0 -49.323,28.477 c -1.097,0.633 -1.995,2.349 -1.995,3.812 0,1.464 0.898,2.143 1.995,1.509 L 0,5.321 C 1.098,4.687 1.996,2.972 1.996,1.509 1.996,0.045 1.098,-0.634 0,0"
             style="fill:#db53bc;fill-opacity:1;fill-rule:nonzero;stroke:none"
             id="path530" /></g><g
           id="g532"
           transform="translate(969.0771,740.459)"><path
             d="m 0,0 -49.323,28.477 c -1.097,0.633 -1.995,2.349 -1.995,3.812 0,1.464 0.898,2.143 1.995,1.509 L 0,5.321 C 1.098,4.687 1.996,2.972 1.996,1.509 1.996,0.045 1.098,-0.634 0,0"
             style="fill:#db53bc;fill-opacity:1;fill-rule:nonzero;stroke:none"
             id="path534" /></g><g
           id="g536"
           transform="translate(969.0771,762.0371)"><path
             d="m 0,0 -49.323,28.477 c -1.097,0.633 -1.995,2.349 -1.995,3.812 0,1.464 0.898,2.143 1.995,1.509 L 0,5.321 C 1.098,4.687 1.996,2.972 1.996,1.509 1.996,0.045 1.098,-0.634 0,0"
             style="fill:#db53bc;fill-opacity:1;fill-rule:nonzero;stroke:none"
             id="path538" /></g><g
           id="g540"
           transform="translate(969.0771,751.248)"><path
             d="m 0,0 -49.323,28.477 c -1.097,0.633 -1.995,2.349 -1.995,3.812 0,1.464 0.898,2.143 1.995,1.509 L 0,5.321 C 1.098,4.687 1.996,2.972 1.996,1.509 1.996,0.045 1.098,-0.634 0,0"
             style="fill:#db53bc;fill-opacity:1;fill-rule:nonzero;stroke:none"
             id="path542" /></g><g
           id="g544"
           transform="translate(969.0771,772.8262)"><path
             d="m 0,0 -49.323,28.477 c -1.097,0.633 -1.995,2.349 -1.995,3.812 0,1.464 0.898,2.143 1.995,1.509 L 0,5.321 C 1.098,4.687 1.996,2.972 1.996,1.509 1.996,0.045 1.098,-0.634 0,0"
             style="fill:#db53bc;fill-opacity:1;fill-rule:nonzero;stroke:none"
             id="path546" /></g><g
           id="g548"
           transform="translate(969.0771,729.6699)"><path
             d="m 0,0 -49.323,28.477 c -1.097,0.633 -1.995,2.349 -1.995,3.812 0,1.464 0.898,2.143 1.995,1.509 L 0,5.321 C 1.098,4.687 1.996,2.972 1.996,1.509 1.996,0.045 1.098,-0.634 0,0"
             style="fill:#db53bc;fill-opacity:1;fill-rule:nonzero;stroke:none"
             id="path550" /></g><g
           id="g552"
           transform="translate(998.1055,679.6377)"><path
             d="m 0,0 -109.604,63.28 v 9.762 c 0,13.06 -8.014,28.372 -17.809,34.027 l -75.262,43.452 c -9.795,5.656 -17.809,-0.403 -17.809,-13.463 v -33.507 -1.095 -164.185 c 0,-13.06 8.014,-28.373 17.809,-34.028 L 0,-212.771 c 9.795,-5.655 17.809,0.404 17.809,13.463 V -34.027 C 17.809,-20.968 9.795,-5.655 0,0"
             style="fill:#86e1fd;fill-opacity:1;fill-rule:nonzero;stroke:none"
             id="path554" /></g></g></g></g></svg>
