<svg xmlns="http://www.w3.org/2000/svg" xmlns:xlink="http://www.w3.org/1999/xlink" width="470" height="478" viewBox="0 0 470 478">
  <defs>
    <clipPath id="clip-Custom_Size_1">
      <rect width="470" height="478"/>
    </clipPath>
  </defs>
  <g id="Custom_Size_1" data-name="Custom Size – 1" clip-path="url(#clip-Custom_Size_1)">
    <rect width="470" height="478" fill="#fff"/>
    <g id="Style_2" transform="translate(7.2 11.2)">
      <g id="Group_2" data-name="Group 2">
        <g id="Group_1" data-name="Group 1">
          <path id="Path_1" data-name="Path 1" d="M222.836,445.3C100.166,445.3.375,345.492.375,222.836S100.166.375,222.836.375,445.3,100.166,445.3,222.836,345.492,445.3,222.836,445.3Z" transform="translate(4.964 4.964)" fill="#fff"/>
          <path id="Path_2" data-name="Path 2" d="M227.8,10.678c119.723,0,217.122,97.4,217.122,217.122S347.523,444.922,227.8,444.922,10.678,347.523,10.678,227.8,108.077,10.678,227.8,10.678M227.8,0C101.983,0,0,101.983,0,227.8S101.983,455.6,227.8,455.6s227.8-102,227.8-227.8S353.617,0,227.8,0Z" fill="#e5e5e5"/>
        </g>
      </g>
      <g id="Group_3" data-name="Group 3" transform="translate(92.8 135.256)">
        <path id="Path_3" data-name="Path 3" d="M6.518,150.166,80.4,57.28,6.518,12.119Z" transform="translate(-6.518 25.169)" fill="#fff"/>
        <path id="Path_4" data-name="Path 4" d="M183.513,15.746,133.525,46.527,83.451,15.917,7.11,111.906H259.925Z" transform="translate(1.319 73.181)" fill="#fff"/>
        <path id="Path_5" data-name="Path 5" d="M141.347,114.345,276.518,31.1V9.5h-270V31.938Z" transform="translate(-6.518 -9.5)" fill="#fff"/>
        <path id="Path_6" data-name="Path 6" d="M20.263,57.821l74.305,93.5V12.062Z" transform="translate(175.431 24.414)" fill="#fff"/>
      </g>
    </g>
  </g>
</svg>
