<svg xmlns="http://www.w3.org/2000/svg" xmlns:xlink="http://www.w3.org/1999/xlink" width="470" height="478" viewBox="0 0 470 478">
  <defs>
    <clipPath id="clip-Custom_Size_1">
      <rect width="470" height="478"/>
    </clipPath>
  </defs>
  <g id="Custom_Size_1" data-name="Custom Size – 1" clip-path="url(#clip-Custom_Size_1)">
    <rect width="470" height="478" fill="#fff"/>
    <g id="Layer_3" transform="translate(10.2 14.2)">
      <g id="Group_2" data-name="Group 2">
        <g id="Group_1" data-name="Group 1">
          <path id="Path_1" data-name="Path 1" d="M220.282,439.813C99.241,439.813.751,341.323.751,220.282S99.241.751,220.282.751s219.531,98.49,219.531,219.531S341.323,439.813,220.282,439.813Z" transform="translate(4.525 4.525)" fill="#fff"/>
          <path id="Path_2" data-name="Path 2" d="M224.8,10.537c118.146,0,214.262,96.116,214.262,214.262S342.946,439.062,224.8,439.062,10.537,342.946,10.537,224.8,106.654,10.537,224.8,10.537M224.8,0C100.647,0,0,100.647,0,224.8S100.647,449.6,224.8,449.6,449.6,348.953,449.6,224.8,348.953,0,224.8,0Z" fill="#e5e5e5"/>
        </g>
      </g>
      <g id="Group_3" data-name="Group 3" transform="translate(118.927 97.191)">
        <g id="Outline_Filled_5_">
          <path id="Cat_1_" d="M169.111,269.06h-68.03s.1-20.19,0-34.029c-46.569,10.032-59.565-25.522-59.565-25.522-8.5-17.022-17.022-25.522-17.022-25.522-17.022-10.1,0-8.5,0-8.5,17.022,0,25.522,17.022,25.522,17.022,14.935,25.353,41.5,21.272,51.044,17.022,0-8.5,3.723-21.37,8.5-25.522-37.162-4.18-68.093-25.522-68.093-68.065S50.009,64.9,58.516,56.378c-1.714-4.194-8.844-19.705.26-42.543,0,0,16.72,0,33.741,25.522,8.43-8.43,34.029-8.5,42.543-8.5,8.486,0,34.1.07,42.529,8.5,17.022-25.522,33.783-25.522,33.783-25.522,9.1,22.838,1.981,38.349.26,42.543,8.5,8.5,17.022,17.022,17.022,59.565s-30.889,63.871-68.065,68.065c4.791,4.152,8.5,18.792,8.5,25.522l.021,59.53Z" transform="translate(-16.929 -13.835)" fill="#fff"/>
        </g>
      </g>
    </g>
  </g>
</svg>
