<svg xmlns="http://www.w3.org/2000/svg" xmlns:xlink="http://www.w3.org/1999/xlink" width="470" height="478" viewBox="0 0 470 478">
  <defs>
    <clipPath id="clip-Custom_Size_1">
      <rect width="470" height="478"/>
    </clipPath>
  </defs>
  <g id="Custom_Size_1" data-name="Custom Size – 1" clip-path="url(#clip-Custom_Size_1)">
    <rect width="470" height="478" fill="#fff"/>
    <g id="Flat_copy" transform="translate(9.595 13.611)">
      <g id="Group_2" data-name="Group 2" transform="translate(0.005 -0.011)">
        <g id="Group_1" data-name="Group 1">
          <path id="Path_1" data-name="Path 1" d="M220.5,440.6C99.133,440.6.38,341.845.38,220.481S99.133.364,220.5.364,440.614,99.117,440.614,220.481,341.861,440.6,220.5,440.6Z" transform="translate(4.903 4.919)" fill="#fff"/>
          <path id="Path_2" data-name="Path 2" d="M225.4,10.555c118.462,0,214.834,96.373,214.834,214.834S343.867,440.223,225.4,440.223,10.571,343.851,10.571,225.389,106.943,10.555,225.4,10.555m0-10.566C100.914-.011,0,100.9,0,225.389s100.909,225.4,225.4,225.4,225.4-100.923,225.4-225.4S349.9-.011,225.4-.011Z" transform="translate(-0.005 0.011)" fill="#e5e5e5"/>
        </g>
      </g>
      <path id="Path_3" data-name="Path 3" d="M241.525,230.552V144.1c0-46.32-24.724-67.874-57.7-67.874-26.611,0-38.529,14.637-45.165,24.907V79.759H88.535c.662,14.158,0,150.793,0,150.793h50.123V146.337c0-4.494.324-9,1.648-12.214,3.62-9,11.862-18.328,25.71-18.328,18.145,0,25.4,13.82,25.4,34.092v80.679l50.109-.014ZM35.721,59.178c17.468,0,28.358-11.594,28.358-26.062C63.755,18.324,53.19,7.068,36.045,7.068S7.7,18.31,7.7,33.1c0,14.482,10.876,26.062,27.71,26.062h.31ZM60.783,230.552V79.759H10.673V230.552Z" transform="translate(100.721 92.646)" fill="#fff"/>
    </g>
  </g>
</svg>
