<?xml version="1.0" encoding="utf-8"?>
<svg viewBox="0 0 500 500" xmlns="http://www.w3.org/2000/svg">
  <g id="Group_496" transform="matrix(0.514188, 0, 0, 0.527862, -818.335205, -272.280884)" style="">
    <g id="Group_495">
      <g id="man" transform="translate(1119.163 434.174)">
        <g id="Group_107" transform="translate(-1026.163 -439.64)">
          <g id="Group_105" transform="translate(1)">
            <g id="Group_100">
              <g id="Group_52">
                <g id="Group_10">
                  <g id="Group_7">
                    <path id="Path_7" class="st0" d="M1533.14,1084c-3.29,0.74-13.97,8.4-17.79,12.73c-0.76,0.86-1.02,2.85-1.01,5.21 c0.11,6.98,2.58,13.72,7.01,19.11c4.05,5.03,10.08,13.55,17.28,26.87l3.9-3.53c5.54-4.89,13.36-6.27,20.24-3.57l0.25,0.12 c-0.29-1.05-0.63-2.09-0.99-3.09c0,0-17.88-24.94-16.57-33.31c1.34-8.58,3.29-22.51,3.29-22.51L1533.14,1084z" style="fill: rgb(43, 60, 115);"/>
                  </g>
                  <g id="Group_8">
                    <path id="Path_8" class="st1" d="M1538.49,1148.05l0.14-0.12c-4.61-7.98-8.6-19.13-16.55-28.73 c-6.93-8.36-7.65-15.01-6.49-19.11c1.09-3.89,5.76-8.74,5.76-8.74c-3.23,0.6-11.76,10.89-10.44,15.54 c3.45,12.24,10.13,13.98,15.53,22.87c5.56,9.16,8.65,19.58,12.84,23.78c2.02,2.03,8.02,6.57,13.52,5.84 c4.73-0.63,8.17-2.92,9.63-5.49c2.2-3.88,1.82-8.52,0.64-12.85c1.03,3.82,1.33,7.87-0.61,11.28 c-1.3,2.28-4.35,4.31-8.56,4.88c-4.88,0.65-10.21-3.39-12.01-5.19c-0.82-0.8-1.6-1.64-2.32-2.53 C1539.19,1149.04,1538.84,1148.57,1538.49,1148.05z" style="fill: rgb(16, 22, 102);"/>
                  </g>
                  <g id="Group_9">
                    <path id="Path_9" class="st2" d="M1542.52,1144.39l-3.9,3.53l-0.14,0.12c0.35,0.53,0.7,0.99,1.06,1.43 c0.73,0.88,1.51,1.73,2.32,2.53c1.8,1.8,7.13,5.84,12.01,5.19c4.2-0.56,7.26-2.59,8.56-4.88 c1.94-3.42,1.65-7.46,0.61-11.28c-0.01-0.03-0.01-0.06-0.02-0.09l0,0l-0.25-0.12 C1555.89,1138.12,1548.07,1139.5,1542.52,1144.39z" style="fill: rgb(255, 255, 255);"/>
                  </g>
                </g>
                <g id="Group_12">
                  <g id="Group_11">
                    <path id="Path_10" class="st2" d="M1531.36,1106.54L1531.36,1106.54c2.6,2.05,6.38,1.6,8.43-1.01 c0.07-0.08,0.13-0.17,0.19-0.25l11.63-16.55l-15.92-10.2l-6.98,9.97C1524.67,1094.27,1525.84,1102.18,1531.36,1106.54z" style="fill: rgb(255, 255, 255);"/>
                  </g>
                </g>
                <g id="Group_19">
                  <g id="Group_17">
                    <g id="Group_13">
                      <path id="Path_11" class="st0" d="M1548.38,996.6c-3.28-2.04-6.93-3.41-10.75-4.03c-3.34,0.39-10.23-1.42-11.76,1.76 c-1.16,2.4-0.78,2.86-2.28,6.16c-4.33,9.5-7.36,28.15-9.79,37.31l4.6,0.21c6.45,0.37,12.16,4.31,14.78,10.22l0.08,0.23 c0.47-0.83,0.9-1.68,1.29-2.52c0,0,4.13-17.15,7.98-22.63c8.92-12.69,12.16-16.44,12.16-16.44L1548.38,996.6z" style="fill: rgb(43, 60, 115);"/>
                    </g>
                    <g id="Group_14">
                      <path id="Path_12" class="st3" d="M1532.88,992.48c-2.81,0.55-5.19,2.39-6.44,4.96 C1527.69,994.87,1530.08,993.03,1532.88,992.48z" style="fill: rgb(12, 2, 47);"/>
                    </g>
                    <g id="Group_15">
                      <path id="Path_13" class="st1" d="M1513.64,1037.79l0.16,0.01c2.06-7.76,6.07-17.72,9.88-26.36 c2.24-5.09,1.32-11.1,2.99-14.56c1.53-3.18,7.63-3.91,10.97-4.31c0.09-0.01,0.17-0.03,0.26-0.04l0,0l-9.26-0.84 c0,0-4.71,0.01-6.74,3.7c-2.85,5.17-2.33,14.87-4.46,23.68c-2.19,9.08-6.7,17.42-6.69,22.59 c0.01,2.49,0.93,8.99,4.8,11.91c3.33,2.51,6.88,3.21,9.37,2.52c3.76-1.04,6.39-4.15,8.32-7.56c-1.71,3-4.03,5.68-7.34,6.6 c-2.21,0.61-5.36-0.01-8.32-2.24c-3.43-2.59-4.26-8.36-4.26-10.58c-0.02-1,0.02-2,0.11-2.99 C1513.46,1038.83,1513.53,1038.33,1513.64,1037.79z" style="fill: rgb(16, 22, 102);"/>
                    </g>
                    <g id="Group_16">
                      <path id="Path_14" class="st2" d="M1518.4,1038.01l-4.6-0.21l-0.16-0.01c-0.11,0.54-0.18,1.04-0.22,1.53 c-0.09,0.99-0.13,1.99-0.11,2.99c0.01,2.22,0.83,7.99,4.26,10.58c2.96,2.23,6.11,2.85,8.32,2.24 c3.31-0.92,5.62-3.6,7.34-6.6c0.01-0.02,0.03-0.05,0.04-0.07l0,0l-0.08-0.23 C1530.55,1042.32,1524.85,1038.38,1518.4,1038.01z" style="fill: rgb(255, 255, 255);"/>
                    </g>
                  </g>
                  <g id="Group_18">
                    <path id="Path_15" class="st2" d="M1560.65,1009.1l-5.76,2.32c-2.22,0.69-4.39,1.54-6.49,2.55 c-3.47,1.61-8.51-0.78-10.24-4.19c-2.62-5.1-0.61-11.36,4.49-13.99c0.26-0.13,0.53-0.26,0.8-0.37l13.49-3.34 c1.08-0.27,2.18,0.39,2.45,1.48c0.01,0.03,0.01,0.06,0.02,0.08l2.66,13.11C1562.28,1007.79,1561.66,1008.81,1560.65,1009.1 z" style="fill: rgb(255, 255, 255);"/>
                  </g>
                </g>
                <g id="Group_20">
                  <path id="Path_16" class="st0" d="M1648.31,956.52c-14.09,17.17-85.7,31.13-103.2,34.32c-2.27,0.41-3.97,2.32-4.12,4.62 l-0.11,1.6c-0.31,4.66,0.71,9.32,2.95,13.42l3.53,6.47c0,0,107.91-19.16,128.77-37.94c16.08-14.48,17.15-95.97,17.15-95.97 v-43.12L1649.93,858c0,0,2.63,39.42,1.95,56.1C1651.56,922.08,1653.38,950.35,1648.31,956.52z" style="fill: rgb(43, 60, 115);"/>
                </g>
                <g id="Group_22">
                  <g id="Group_21">
                    <path id="Path_17" class="st4" d="M1545.66,1012.48l-0.19-1.26c1.04-0.16,104.08-15.95,124.52-40.25 c19.86-23.62,14.83-120.45,14.78-121.42l1.27-0.07c0.22,4,5.11,98.31-15.07,122.31 C1650.22,996.45,1549.92,1011.83,1545.66,1012.48z" style="fill: rgb(130, 251, 221);"/>
                  </g>
                </g>
                <g id="Group_23">
                  <path id="Path_18" class="st0" d="M1634.27,875.01c0,0-15.84,94.61-27.07,124.39c-10.29,27.29-56.6,102-56.6,102h-1.42 c-10.84,0-19.9-8.22-20.95-19.01l0,0c0,0,35.06-63.58,44.04-86.39c12.05-30.6,11.59-90.72,11.59-90.72l0,0 c-5.34-11.37-8.11-23.77-8.11-36.33v-4.47L1634.27,875.01z" style="fill: rgb(43, 60, 115);"/>
                </g>
                <g id="Group_28">
                  <g id="Group_25">
                    <g id="Group_24">
                      <path id="Path_19" class="st4" d="M1594.68,910.77c-5.37-11.46-8.16-23.95-8.17-36.6v-4.47h1.27v4.47 c0.02,12.46,2.77,24.77,8.05,36.06L1594.68,910.77z" style="fill: rgb(130, 251, 221);"/>
                    </g>
                  </g>
                  <g id="Group_27">
                    <g id="Group_26">
                      <path id="Path_20" class="st4" d="M1537.51,1095.33l-1.07-0.7c64.32-98.7,58.25-183.25,58.18-184.09l1.27-0.1 C1595.96,911.29,1602.06,996.27,1537.51,1095.33z" style="fill: rgb(130, 251, 221);"/>
                    </g>
                  </g>
                </g>
                <g id="Group_29">
                  <path id="Path_21" class="st0" d="M1659.21,886.98l-12.26,6.13c-7.72,3.86-13.94,10.16-17.7,17.92l-5.31,10.98l-4.36-63.09 l50.68-20.45L1659.21,886.98z" style="fill: rgb(43, 60, 115);"/>
                </g>
                <g id="Group_36">
                  <g id="Group_31">
                    <g id="Group_30">
                      <path id="Path_22" class="st5" d="M1751.64,786.42l-6.12-2.89c-27.06-13.31-45.91-38.99-50.5-68.79 c-4.46-29.12-9.46-52.88-14.57-69.27c-0.94-3.03,0.69-6.26,3.68-7.3l0,0c8.57-3,17.94,1.51,20.95,10.07 c0.14,0.39,0.26,0.79,0.37,1.19c4.34,16.34,8.44,37.04,12.24,61.83c3.45,22.39,17.63,41.69,37.96,51.68l12.74,8.2 L1751.64,786.42z" style="fill: rgb(255, 160, 168);"/>
                    </g>
                  </g>
                  <g id="Group_35">
                    <g id="Group_32">
                      <path id="Path_23" class="st6" d="M1717.94,689.82c1.62,5.19-3.96,11.28-12.03,13.8s-15.92,0.37-17.55-4.82 s3.6-11.44,11.66-13.97S1716.31,684.63,1717.94,689.82z" style="fill: rgb(243, 252, 255);"/>
                    </g>
                    <g id="Group_34">
                      <g id="Group_33">
                        <path id="Path_24" class="st6" d="M1708.15,652.58c-1.48-9.2-12.77-16.97-23.47-18.36c-3.76-0.49-12.11-1.56-13.54,0.16 c-3.07,3.71,5.36,14.11,6.16,19.08c1.62,10.06,9.1,40.21,10.88,42.1c4.42,4.72,11.23,6.35,17.31,4.15l1.72-0.62 c5.63-2.03,8.79-8.02,7.28-13.82c-1.05-4.04-2.15-8.49-2.78-11.76C1710.37,666.58,1710.11,664.77,1708.15,652.58z" style="fill: rgb(243, 252, 255);"/>
                      </g>
                    </g>
                  </g>
                </g>
                <g id="Group_37">
                  <path id="Path_25" class="st7" d="M1564.29,696.59c-2.33-15.7-2.94-16.99-2.94-16.99s15.11-13.98,20.63-18.03 c39.24-28.8,89.55-28.52,89.55-28.52c8.36-1.71,12.89,2.15,16.81,12.89l7.31,25.99c1.85,6.56,2.57,13.38,2.13,20.18 l-3.23,50.37l2.42,35.57c1.36,8.89,2.22,17.85,2.57,26.83l1.29,32.97c0.21,5.33-2.91,10.24-7.82,12.32l-32.45,13.73 c-1.66,0.7-3.58-0.08-4.28-1.74c-0.18-0.43-0.27-0.9-0.26-1.37l0.55-17.86l-9.54,26.49l-41.12,17.6 c-4.33,1.83-9.32,1.15-13-1.79l-16.74-13.36c-4.9-3.91-7.39-10.09-6.58-16.3l8.58-65.41L1564.29,696.59z" style="fill: rgb(54, 204, 226);"/>
                </g>
                <g id="Group_38">
                  <path id="Path_26" class="st8" d="M1699.53,804.88c-0.35-8.98-1.21-17.94-2.57-26.83l-2.42-35.57l1.95-30.44 c0,0-5.65,6.32-8.43,7.7c-12.32,6.12-51.97,22.29-51.97,22.29c-13.14,6.52-29.01,3.46-38.79-7.47l-32.83-36.73l13.68,92.33 l-8.58,65.41c-0.81,6.21,1.68,12.39,6.58,16.3l16.74,13.36c1.84,1.47,6.25,2.68,6.25,2.68s4.58,0.02,6.75-0.89l41.12-17.6 l9.54-26.49l-0.55,17.86c-0.06,1.8,1.36,3.31,3.17,3.37c0.47,0.01,0.94-0.07,1.37-0.26l32.45-13.73 c4.92-2.08,8.03-6.98,7.82-12.32L1699.53,804.88z" style="fill: rgb(89, 250, 210);"/>
                </g>
                <g id="Group_39">
                  <path id="Path_27" class="st9" d="M1572.28,996.01c-1.8,4.58-4.67,10.82-8.08,17.85c-1.93,0.38-3.67,0.72-5.22,1.02 c3.81-7.78,7.02-14.7,8.98-19.68c1.21-3.13,2.26-6.32,3.14-9.56c1.54-0.32,3.15-0.67,4.81-1.03 C1574.92,988.47,1573.71,992.28,1572.28,996.01z" style="fill: rgb(22, 30, 58);"/>
                </g>
                <g id="Group_40">
                  <path id="Path_28" class="st9" d="M1607.2,999.41c2.89-8.23,5.33-16.61,7.31-25.11c2.83-0.94,5.6-1.91,8.26-2.92 c-2.75,11.4-5.5,21.35-8.02,28.03c-0.4,1.07-0.86,2.21-1.37,3.42c-2.83,0.72-5.66,1.42-8.45,2.1 C1605.81,1002.93,1606.57,1001.08,1607.2,999.41z" style="fill: rgb(22, 30, 58);"/>
                </g>
                <g id="Group_41">
                  <path id="Path_29" class="st10" d="M1550.69,1151.17" style="fill: rgb(103, 36, 214);"/>
                </g>
                <g id="Group_42">
                  <path id="Path_30" class="st11" d="M1612.74,641.35l13.9,20.31l20.48,38.2l-15.42-10.6c-4.35-2.99-10.04-3.17-14.57-0.47 l0,0l-12.27,11.06c-1.29,1.16-3.27,1.06-4.43-0.23c-0.28-0.31-0.49-0.67-0.63-1.06l-8.04-22.82 c-5.21-11.39-0.26-24.84,11.08-30.14L1612.74,641.35z" style="fill: rgb(227, 242, 236);"/>
                </g>
                <g id="Group_43">
                  <path id="Path_31" class="st11" d="M1648.04,626.04c13.48-0.65,26.04,6.85,31.85,19.03l7.96,12.49 c0.38,0.6,0.21,1.39-0.39,1.78c-0.29,0.18-0.63,0.24-0.96,0.17l-5.3-1.14c-5.09-0.56-9.87,2.53-11.45,7.4l-8.42,25.95 l-17.15-44.51L1648.04,626.04z" style="fill: rgb(227, 242, 236);"/>
                </g>
                <g id="Group_44">
                  <path id="Path_32" class="st5" d="M1608.24,658.28L1608.24,658.28c16.27,9.74,29.52,23.79,38.29,40.61l0,0 c3.01,5.78,10.77,27.98,13.18,21.92l1.07-23.66c0.37-0.93,0.56-1.93,0.56-2.93v-61.53l-42.92-5.56l-5.91,14.84l-4.94,3.74 c-3.35,2.53-4.01,7.3-1.48,10.65C1606.67,657.12,1607.4,657.78,1608.24,658.28z" style="fill: rgb(255, 160, 168);"/>
                </g>
                <g id="Group_45">
                  <path id="Path_33" class="st12" d="M1661.33,632.68v25.23l-4.55,2.72c-1.98,1.19-4.43,1.25-6.47,0.17l-25.44-11.92 c-1.51-0.8-2.79-1.99-3.71-3.43c-0.35-0.59-0.73-1.15-1.15-1.69l-5.54-6.75l3.94-9.89L1661.33,632.68z" style="fill: rgb(191, 120, 126);"/>
                </g>
                <g id="Group_51">
                  <g id="Group_49">
                    <g id="Group_46">
                      <path id="Path_34" class="st5" d="M1620.94,589.77l13.33,5.56l14.01,2.29l14.07-8.12l1.94-1.12l10.03-2.42l-1.68,33.25 l-1.26,20.19c0.1,2.4,1.02,4.68-1.04,5.92l-12.83,7.68c-1.98,1.18-4.43,1.25-6.47,0.17l-25.44-11.91 c-1.51-0.8-2.79-1.99-3.71-3.44c-0.35-0.59-0.73-1.15-1.15-1.69l-13.7-16.69l-2.49-16.25 c-4.04-9.15-0.04-16.84-0.04-26.84l-8.83-1.98L1620.94,589.77z" style="fill: rgb(255, 160, 168);"/>
                    </g>
                    <g id="Group_47">
                      <path id="Path_35" class="st13" d="M1652.48,649.15l0.38,2.67l-13.43-4.94l-1.72-3.27c-2.97-5.76-7.03-10.88-11.97-15.07 l0,0l-1.81-7.96l-3.34-1.05l6.48,29.47c0.8,0.84,1.73,1.55,2.75,2.08l26.77,11.63c2.09,1.1,4.66,0.65,6.24-1.1 l11.06-11.48c1.77-1.84,0.48-4.61-0.05-7.64l-1.56-16.93l-13.95,8.42C1653.93,636.62,1651.58,642.74,1652.48,649.15z" style="fill: rgb(246, 145, 29);"/>
                    </g>
                    <g id="Group_48">
                      <path id="Path_36" class="st14" d="M1647.73,600.66L1647.73,600.66c0.3-1.65-0.8-3.23-2.46-3.53c-0.01,0-0.03,0-0.04-0.01 l-10.96-1.79l-15.51-0.44l-23.09-20.53l0,0c0-1.88,0.66-3.7,1.86-5.14l10.89-13.08c5.86-6.14,14.19-9.28,22.65-8.53 l12.01-0.08c3.1-0.02,6.15,0.83,8.79,2.46c5.84,3.6,30.69,17.93,31.68,18.59c0.73,0.48-1.89,2.78-4.54,4.85 c-1.19,0.93-1.4,2.64-0.47,3.82c0.4,0.51,0.97,0.86,1.6,0.99l4.28,0.88l-3.58,3.77c-3.78,3.99-9.17,6.06-14.65,5.62 l-1.9-0.15l-3.96,4.4c-2.94,3.26-6.64,5.75-10.78,7.23L1647.73,600.66z" style="fill: rgb(255, 181, 96);"/>
                    </g>
                  </g>
                  <g id="Group_50">
                    <path id="Path_37" class="st15" d="M1634.27,595.34c-7.35,0.12-10.97,12.51-10.2,19.82l-0.29,5.63l-2.74-1.38l-0.7-8.44 c-1.52-4.86-5.89-8.28-10.98-8.55c-2.04,4.44-0.74,14.75,1.68,18.99l2.73,1.52l0.71,5.58h-3.87 c-4.51-8.67-9.82-19.78-11.26-29.44l-3.68-24.69l28.76,19.6L1634.27,595.34z" style="fill: rgb(180, 166, 76);"/>
                  </g>
                </g>
              </g>
              <g id="Group_55">
                <g id="Group_54">
                  <g id="Group_53">
                    <path id="Path_38" class="st5" d="M1683.65,834.77l-74.54-22.49c-17.8-5.37-31.47-19.68-36.02-37.7 c-2.45-9.71-5.05-20.61-7.45-31.82c-3.94-18.4-7.33-37.61-8.6-53.7c-0.47-6.3,4.26-11.8,10.56-12.27 c0.29-0.02,0.58-0.03,0.88-0.03l0,0c5.99,0,10.96,4.61,11.43,10.58c2.02,25.61,10.24,61.1,15.41,81.6 c2.6,10.21,10.34,18.32,20.42,21.39l74.54,22.49c6.06,1.83,9.49,8.23,7.67,14.29l0,0 C1696.11,833.17,1689.71,836.6,1683.65,834.77z" style="fill: rgb(255, 160, 168);"/>
                  </g>
                </g>
              </g>
              <g id="Group_57">
                <g id="Group_56">
                  <path id="Path_39" class="st6" d="M1585.77,689.11c-0.63-7.94-7.57-13.87-15.51-13.24c-1.2,0.09-2.38,0.34-3.51,0.73 c-7.34,2.51-12,9.73-11.28,17.46c1.56,19.5,3.55,35.8,7.58,52.91c0.91,3.86,7.56,5.25,11.26,3.82l14.5-5.85 c2.35-0.91,3.68-3.41,3.12-5.87C1588.36,723.27,1587.82,715.1,1585.77,689.11z" style="fill: rgb(243, 252, 255);"/>
                </g>
              </g>
              <g id="Group_59">
                <g id="Group_58">
                  <path id="Path_40" class="st4" d="M1587.75,668.37c-5.44,2.86-11.71,5.29-15.6,10.24c-4.11,5.23-4.71,11.24-3.89,17.61 c1.48,11.49,3.09,22.96,4.63,34.43c0.16,1.21,2.01,0.7,1.84-0.51c-1.36-10.13-2.72-20.27-4.09-30.41 c-0.91-6.77-1.78-13,2.45-19.12c3.62-5.24,10.15-7.72,15.63-10.6C1589.81,669.44,1588.85,667.79,1587.75,668.37 L1587.75,668.37z" style="fill: rgb(130, 251, 221);"/>
                </g>
              </g>
              <g id="Group_60">
                <path id="Path_41" class="st6" d="M1591.36,736.97c1.88,6.11-3.36,12.83-11.26,15.26s-15.83-0.54-17.71-6.66 s2.99-13.04,10.89-15.47S1589.48,730.86,1591.36,736.97z" style="fill: rgb(243, 252, 255);"/>
              </g>
              <g id="Group_61">
                <path id="Path_42" class="st5" d="M1573.97,736.26L1573.97,736.26c6.7-2.96,13.94-0.02,15.33,7.17l1.9,8.46l-21.06,10.64 l-3.27-14.96C1565.95,742.41,1569.17,738.38,1573.97,736.26z" style="fill: rgb(255, 160, 168);"/>
              </g>
              <g id="Group_62">
                <path id="Path_43" class="st16" d="M1698.44,717.04" style="fill: rgb(215, 220, 226);"/>
              </g>
              <g id="Group_67">
                <g id="Group_64">
                  <g id="Group_63">
                    <path id="Path_44" class="st2" d="M1663.59,702.86l-14.43,7.73c-1.63,0.87-0.18,3.35,1.45,2.48l14.43-7.73 C1666.66,704.46,1665.22,701.99,1663.59,702.86L1663.59,702.86z" style="fill: rgb(255, 255, 255);"/>
                  </g>
                </g>
                <g id="Group_66">
                  <g id="Group_65">
                    <path id="Path_45" class="st2" d="M1663.96,710.93l-14.43,7.73c-1.63,0.87-0.18,3.35,1.45,2.47l14.43-7.73 C1667.03,712.53,1665.59,710.06,1663.96,710.93L1663.96,710.93z" style="fill: rgb(255, 255, 255);"/>
                  </g>
                </g>
              </g>
              <g id="Group_90">
                <g id="Group_85">
                  <g id="Group_75">
                    <g id="Group_74">
                      <g id="Group_68">
                        <path id="Path_46" class="st17" d="M1837.11,831.05c-0.11,1.23-0.88,2.31-2.02,2.82l-94.36,54.48 c-0.33,0.19-0.68,0.35-1.04,0.49c-0.06,0.02-0.11,0.04-0.17,0.06c-0.31,0.11-0.63,0.21-0.95,0.29 c-0.06,0.02-0.13,0.03-0.2,0.05c-0.36,0.08-0.73,0.14-1.1,0.19l-0.17,0.02c-0.38,0.04-0.75,0.06-1.13,0.06h-0.18 c-0.39,0-0.77-0.02-1.15-0.06c-0.07-0.01-0.13-0.02-0.2-0.03c-0.28-0.03-0.56-0.09-0.83-0.14 c-0.23-0.05-0.46-0.11-0.68-0.17s-0.44-0.12-0.64-0.2c-0.09-0.03-0.18-0.07-0.27-0.1c-0.33-0.13-0.65-0.28-0.95-0.45 l-56.94-33.09c-0.16-0.09-0.28-0.2-0.42-0.3c-0.17-0.11-0.32-0.23-0.48-0.35c-0.2-0.18-0.38-0.38-0.54-0.59 c-0.03-0.04-0.05-0.08-0.07-0.11c-0.13-0.2-0.24-0.41-0.32-0.63c-0.01-0.03-0.01-0.05-0.02-0.08 c-0.07-0.23-0.11-0.46-0.12-0.7l0.01,2.55c0,0.02,0,0.04,0,0.06c0,0.13,0.02,0.26,0.05,0.39 c0.02,0.08,0.04,0.17,0.07,0.25c0.01,0.03,0.01,0.05,0.02,0.08s0.01,0.04,0.02,0.06c0.05,0.13,0.11,0.26,0.18,0.39 c0.04,0.06,0.08,0.12,0.12,0.19c0.03,0.04,0.05,0.08,0.08,0.11s0.05,0.07,0.07,0.11c0.13,0.16,0.27,0.31,0.42,0.45 c0.01,0.01,0.03,0.02,0.04,0.03c0.15,0.13,0.31,0.24,0.47,0.35c0.12,0.08,0.21,0.17,0.34,0.25 c0.03,0.02,0.06,0.03,0.08,0.05l56.94,33.09c0.31,0.17,0.63,0.32,0.95,0.45c0.09,0.04,0.18,0.07,0.27,0.1 s0.18,0.07,0.28,0.11c0.11,0.04,0.24,0.06,0.36,0.09c0.22,0.06,0.45,0.12,0.68,0.17c0.08,0.02,0.16,0.05,0.25,0.06 c0.19,0.03,0.39,0.06,0.58,0.08c0.07,0.01,0.14,0.02,0.2,0.03c0.03,0,0.06,0.01,0.08,0.01c0.25,0.03,0.5,0.04,0.76,0.05 c0.1,0,0.2,0,0.31,0c0.06,0,0.12,0,0.18,0s0.14,0,0.21,0c0.22-0.01,0.45-0.02,0.67-0.04c0.08-0.01,0.17-0.02,0.25-0.03 l0.17-0.02c0.08-0.01,0.16-0.02,0.24-0.03c0.23-0.03,0.45-0.07,0.68-0.12c0.06-0.01,0.12-0.03,0.18-0.04l0.19-0.05 c0.11-0.03,0.23-0.05,0.34-0.08c0.21-0.06,0.41-0.13,0.61-0.21c0.05-0.02,0.11-0.03,0.17-0.05 c0.02-0.01,0.04-0.01,0.06-0.02c0.34-0.13,0.67-0.29,0.99-0.47l94.36-54.48c1.13-0.5,1.9-1.58,2.02-2.82L1837.11,831.05z " style="fill: rgb(163, 194, 244);"/>
                      </g>
                      <g id="Group_70">
                        <g id="Group_69">
                          <path id="Path_47" class="st18" d="M1674.18,849.67c-2.68,1.54-2.69,4.05-0.04,5.59l56.94,33.09 c3.03,1.55,6.62,1.55,9.65,0l94.36-54.48c2.68-1.54,2.69-4.05,0.03-5.59l-56.94-33.09c-3.03-1.54-6.61-1.54-9.64,0.01 L1674.18,849.67z" style="fill: rgb(200, 231, 255);"/>
                        </g>
                      </g>
                      <g id="Group_71">
                        <path id="Path_48" class="st19" d="M1782.94,812.68c-2.33-1.19-5.1-1.19-7.43,0l-72.72,41.99 c-2.06,1.19-2.07,3.12-0.03,4.3l43.88,25.5c0.14,0.08,0.3,0.14,0.44,0.21l80.1-46.25c-0.12-0.09-0.24-0.18-0.36-0.26 L1782.94,812.68z" style="fill: rgb(72, 100, 191);"/>
                      </g>
                      <g id="Group_73">
                        <g id="Group_72">
                          <path id="Path_49" class="st20" d="M1717.51,829.09c-0.3,0.11-0.46,0.44-0.36,0.74c0.06,0.17,0.19,0.3,0.36,0.36 l11.67,6.78c0.61,0.31,1.33,0.31,1.95,0l19.32-11.16c0.31-0.11,0.47-0.44,0.36-0.75c-0.06-0.17-0.19-0.3-0.36-0.36 l-11.66-6.78c-0.61-0.31-1.34-0.31-1.96,0L1717.51,829.09z" style="fill: rgb(166, 206, 245);"/>
                        </g>
                      </g>
                    </g>
                  </g>
                  <g id="Group_80">
                    <g id="Group_79">
                      <g id="Group_76">
                        <path id="Path_50" class="st21" d="M1848.28,767.68l-0.06-0.05c-0.07-0.05-0.15-0.09-0.23-0.13 c-0.04-0.02-0.08-0.03-0.13-0.04l-0.06-0.02h-0.02c-0.02,0-0.04-0.01-0.05-0.01c-0.05-0.01-0.09-0.02-0.14-0.02 s-0.1-0.01-0.16-0.01s-0.11,0-0.17,0c-0.03,0-0.06,0.01-0.09,0.01h-0.03c-0.02,0-0.05,0-0.07,0.01 c-0.07,0.01-0.14,0.02-0.21,0.04s-0.16,0.04-0.24,0.06c-0.06,0.02-0.13,0.04-0.19,0.07l-0.05,0.02 c-0.02,0.01-0.04,0.01-0.06,0.02c-0.14,0.05-0.28,0.11-0.43,0.19c-0.12,0.06-0.24,0.12-0.36,0.19l-95.6,55.2 c-0.33,0.2-0.65,0.42-0.95,0.66c-0.03,0.03-0.06,0.04-0.1,0.07c-0.15,0.12-0.3,0.25-0.45,0.38 c-0.03,0.02-0.05,0.05-0.07,0.07l-0.06,0.05c-0.06,0.06-0.13,0.12-0.19,0.18c-0.09,0.09-0.18,0.18-0.27,0.27 s-0.16,0.17-0.24,0.25l-0.01,0.01l-0.01,0.01c-0.07,0.08-0.14,0.15-0.2,0.23s-0.13,0.16-0.2,0.24s-0.12,0.15-0.18,0.23 l-0.08,0.1l-0.03,0.03c-0.03,0.03-0.05,0.06-0.07,0.09c-0.06,0.08-0.11,0.15-0.17,0.23c-0.05,0.08-0.11,0.15-0.16,0.23 s-0.1,0.16-0.15,0.23l-0.03,0.04l-0.01,0.02c-0.04,0.06-0.07,0.11-0.11,0.17c-0.05,0.08-0.1,0.17-0.15,0.25 s-0.1,0.17-0.14,0.26c-0.03,0.06-0.06,0.11-0.08,0.17l-0.02,0.04c-0.01,0.02-0.03,0.05-0.04,0.07 c-0.05,0.1-0.1,0.2-0.14,0.3c-0.05,0.11-0.1,0.23-0.14,0.34c-0.01,0.04-0.03,0.07-0.04,0.11l-0.04,0.1 c-0.03,0.07-0.05,0.14-0.08,0.22c-0.06,0.19-0.11,0.38-0.15,0.57l-11.95,58.97c-0.16,0.56-0.11,1.15,0.13,1.68 c0.07,0.13,0.16,0.24,0.27,0.33l1.07,0.89c-0.49-0.55-0.65-1.32-0.4-2.01l11.95-58.97c0.06-0.27,0.13-0.53,0.23-0.79 c0.01-0.03,0.02-0.07,0.04-0.1c0.1-0.28,0.22-0.55,0.35-0.81l0.02-0.04c0.14-0.28,0.3-0.57,0.48-0.85l0.02-0.02 c0.18-0.28,0.37-0.56,0.58-0.84l0.02-0.03c0.21-0.28,0.43-0.54,0.67-0.8l0.01-0.01c0.23-0.25,0.46-0.49,0.71-0.71 l0.06-0.06c0.2-0.18,0.41-0.35,0.62-0.52c0.3-0.24,0.62-0.46,0.95-0.66l95.6-55.2c0.27-0.16,0.55-0.29,0.85-0.4 l0.05-0.02c0.23-0.09,0.47-0.15,0.72-0.18h0.03c0.2-0.02,0.41-0.01,0.61,0.03h0.02c0.18,0.04,0.34,0.12,0.48,0.23 L1848.28,767.68z" style="fill: rgb(239, 245, 252);"/>
                      </g>
                      <g id="Group_78">
                        <g id="Group_77">
                          <path id="Path_51" class="st22" d="M1846.61,768.89c2.18-1.26,3.59-0.51,3.15,1.67l-11.95,58.97 c-0.75,2.6-2.45,4.82-4.75,6.24l-95.6,55.2c-2.17,1.25-3.58,0.5-3.14-1.69l11.95-58.97c0.75-2.59,2.44-4.81,4.74-6.23 L1846.61,768.89z" style="fill: rgb(171, 204, 244);"/>
                        </g>
                      </g>
                    </g>
                  </g>
                  <g id="Group_82">
                    <g id="Group_81">
                      <path id="Path_52" class="st2" d="M1803.36,822.21l-10.52,6.07c-1.94,1.19-3.36,3.07-4,5.25l-2.14,10.56 c-0.37,1.84,0.81,2.48,2.65,1.42l10.52-6.07c1.94-1.19,3.36-3.07,4-5.25l2.14-10.56 C1806.38,821.78,1805.2,821.15,1803.36,822.21L1803.36,822.21z" style="fill: rgb(255, 255, 255);"/>
                    </g>
                  </g>
                  <g id="Group_84">
                    <g id="Group_83">
                      <path id="Path_53" class="st23" d="M1802.82,822.21l-10.52,6.07c-1.94,1.19-3.37,3.07-4,5.25l-2.14,10.56 c-0.37,1.84,0.81,2.48,2.65,1.42l10.52-6.07c1.94-1.19,3.36-3.07,4-5.25l2.14-10.56 C1805.84,821.78,1804.65,821.15,1802.82,822.21L1802.82,822.21z" style="fill: rgb(221, 235, 251);"/>
                    </g>
                  </g>
                </g>
                <g id="Group_86">
                  <path id="Path_54" class="st5" d="M1695.86,813.61l-17.04,19.53l30.84,10.07c6.07,1.98,12.74-0.09,16.62-5.17l4.73-6.18 c2.18-2.86,1.64-6.95-1.22-9.13c-0.7-0.54-1.5-0.92-2.36-1.14L1695.86,813.61z" style="fill: rgb(255, 160, 168);"/>
                </g>
                <g id="Group_87">
                  <path id="Path_55" class="st5" d="M1709.66,808.46l-18.11,6.76l12.25,3.88l10.2-4.93c1.52-0.74,2.16-2.57,1.42-4.09 c-0.3-0.62-0.81-1.13-1.43-1.43l0,0C1712.63,808.01,1711.07,807.93,1709.66,808.46z" style="fill: rgb(255, 160, 168);"/>
                </g>
                <g id="Group_88">
                  <path id="Path_56" class="st5" d="M1761.17,768.57l-6.84,1.98c-5.07,1.47-7.98,6.77-6.51,11.83 c0.36,1.23,0.96,2.38,1.77,3.38l11.38,13.96c4.04,4.95,10.76,6.81,16.77,4.64l7.32-2.65c3.38-1.22,5.13-4.96,3.91-8.34 c-0.3-0.83-0.77-1.59-1.37-2.23l-19.26-20.59C1766.51,768.58,1763.74,767.82,1761.17,768.57z" style="fill: rgb(255, 160, 168);"/>
                </g>
                <g id="Group_89">
                  <path id="Path_57" class="st5" d="M1747.67,795.46l0.3-19.33l7.76,10.24l-1.22,11.27c-0.18,1.68-1.69,2.9-3.37,2.71 c-0.69-0.07-1.33-0.38-1.83-0.87l0,0C1748.24,798.42,1747.65,796.96,1747.67,795.46z" style="fill: rgb(255, 160, 168);"/>
                </g>
              </g>
              <g id="Group_92">
                <path id="Path_58" class="st24" d="M1659.84,602.49l7.84,20.66c0.38,1.01-0.12,2.14-1.14,2.53 c-0.05,0.02-0.11,0.04-0.16,0.05l0,0c-2.57,0.73-5.33,0.32-7.59-1.12l-1.65-1.05l-1.66-18.7c-0.12-1.3,0.56-2.55,1.71-3.16 l0.22-0.12c0.84-0.45,1.89-0.13,2.34,0.72C1659.79,602.36,1659.82,602.42,1659.84,602.49z" style="fill: rgb(255, 103, 150);"/>
              </g>
              <g id="Group_93">
                <path id="Path_59" class="st25" d="M1670.48,606.01l-2.91,1.64c-0.57,0.32-1.3,0.12-1.63-0.45c-0.1-0.18-0.16-0.38-0.16-0.59 v-6.99c0-0.43,0.23-0.83,0.61-1.04l2.91-1.64c0.58-0.32,1.31-0.11,1.63,0.47c0.1,0.18,0.15,0.37,0.15,0.57v6.99 C1671.09,605.4,1670.86,605.79,1670.48,606.01z" style="fill: rgb(82, 180, 155);"/>
              </g>
              <g id="Group_94">
                <path id="Path_60" class="st26" d="M1674.86,596.78l-13.32,6.3l-0.2-3.23l13.32-6.3L1674.86,596.78z" style="fill: rgb(68, 39, 97);"/>
              </g>
              <g id="Group_95">
                <path id="Path_61" class="st25" d="M1649.17,614.29l-2.91,1.64c-0.57,0.32-1.3,0.12-1.63-0.45c-0.1-0.18-0.16-0.38-0.16-0.59 v-6.99c0-0.43,0.23-0.83,0.61-1.04l2.91-1.64c0.57-0.32,1.3-0.12,1.63,0.45c0.1,0.18,0.15,0.38,0.15,0.59v6.99 C1649.77,613.68,1649.54,614.08,1649.17,614.29z" style="fill: rgb(82, 180, 155);"/>
              </g>
              <g id="Group_96">
                <path id="Path_62" class="st26" d="M1652.71,605.93l-13.32,6.3l-0.2-3.23l13.32-6.3L1652.71,605.93z" style="fill: rgb(68, 39, 97);"/>
              </g>
              <g id="Group_99" transform="matrix(0.951, -0.309, 0.309, 0.951, -101.167, 388.304)">
                <g id="Group_98">
                  <path id="Path_64" class="st26" d="M1600.21,782.22c-0.94,0-1.87-0.14-2.77-0.41l-2.27-0.69c-0.34-0.1-0.53-0.46-0.43-0.79 l0,0c0.1-0.34,0.46-0.53,0.79-0.42l2.27,0.69c1.53,0.46,3.17,0.48,4.71,0.04l5.99-2.41c0.46-0.19,0.99,0.04,1.17,0.5 c0,0,0,0,0,0l0,0c0.08,0.19-0.01,0.4-0.2,0.48l-6.55,2.63C1602.05,782.09,1601.13,782.22,1600.21,782.22z" style="fill: rgb(68, 39, 97);"/>
                </g>
              </g>
            </g>
          </g>
          <g id="Group_106" class="st27" style="opacity: 0.2;">
            <path id="Path_67" class="st28" d="M1605.27,1234.5c-3.06-0.97-6.19-1.74-9.35-2.3c-2.75-1.92-5.8-3.39-9.02-4.34 c-16.58-5.41-43.39-5.41-59.87,0s-16.39,14.19,0.19,19.6c3.06,0.97,6.19,1.74,9.35,2.3c2.75,1.92,5.79,3.39,9.01,4.34 c16.59,5.41,43.39,5.41,59.87,0S1621.86,1239.91,1605.27,1234.5z" style="fill: rgb(67, 57, 123);"/>
          </g>
        </g>
      </g>
    </g>
    <g id="device" transform="translate(93.225 -3.408)">
      <g id="Group_488">
        <g id="Group_487">
          <g id="Group_220" class="st29" style="opacity: 0.3;">
            <g id="Group_219">
              <path id="Path_126" class="st0" d="M2378.01,1134.67c8.6,4.97,8.65,13.02,0.1,17.98L1942,1406.09 c-8.55,4.97-22.46,4.97-31.06,0.01l-219.01-126.45c-8.6-4.97-8.64-13.02-0.09-17.99l436.11-253.44 c8.55-4.97,22.44-4.97,31.05,0L2378.01,1134.67z" style="fill: rgb(43, 60, 115);"/>
            </g>
          </g>
          <g id="Group_244">
            <g id="Group_241">
              <g id="Group_240">
                <g>
                  <defs>
                    <polygon id="SVGID_1_" points="1667.26,1062.73 2134.32,791.3 2384.49,935.73 1917.43,1207.16 &#9;&#9;&#9;&#9;&#9;&#9;&#9;&#9;&#9;"/>
                  </defs>
                  <clipPath id="SVGID_2_">
                    <polygon points="1667.26,1062.73 2134.32,791.3 2384.49,935.73 1917.43,1207.16 &#9;&#9;&#9;&#9;&#9;&#9;&#9;&#9;&#9;" transform="matrix(1, 0, 0, 1, 0, 0)" style="overflow: visible;"/>
                  </clipPath>
                  <g id="Group_239" class="st30" style="clip-path: url(#SVGID_2_);">
                    <g id="Group_238">
                      <g id="Group_221">
                        <path id="Path_127" class="st0" d="M1804.05,1125.41c-7.53-4.35-7.56-11.39-0.08-15.74l4.69-2.72 c7.48-4.35,19.64-4.35,27.17-0.01l4.71,2.72c7.53,4.35,7.57,11.4,0.09,15.75l-4.69,2.72c-7.48,4.35-19.65,4.35-27.18,0 L1804.05,1125.41L1804.05,1125.41z M2221.53,892.71l107.96,62.33l-61.38,35.67l-30.68,17.83l-275.59,160.15 l-228.3-131.81l367.65-213.65L2221.53,892.71L2221.53,892.71z M2205.89,863.04l6.57-3.82l54.52,31.48l-6.57,3.82 L2205.89,863.04L2205.89,863.04z M2368.92,926.74L2149.91,800.3c-8.6-4.97-22.51-4.97-31.06-0.01l-436.12,253.44 c-8.55,4.97-8.49,13.02,0.11,17.99l219.01,126.44c8.6,4.97,22.5,4.97,31.05,0l436.12-253.45 C2377.57,939.75,2377.52,931.7,2368.92,926.74L2368.92,926.74z" style="fill: rgb(43, 60, 115);"/>
                      </g>
                      <g id="Group_222">
                        <path id="Path_128" class="st6" d="M2101.18,823.22l-367.65,213.66l228.3,131.81l275.59-160.16l-107.96-62.33 l-39.48,22.94l103.14,59.55l-69.47,40.37l-103.14-59.55l-75.3,43.76l103.14,59.55l-61.37,35.66l-103.14-59.55 l-20.54,11.93l-120.34-69.48l266.16-154.67l30.68-17.83L2101.18,823.22L2101.18,823.22z" style="fill: rgb(243, 252, 255);"/>
                      </g>
                      <g id="Group_223">
                        <path id="Path_129" class="st31" d="M2266.98,890.69l-54.52-31.48l-6.57,3.82l54.52,31.48L2266.98,890.69z" style="fill: rgb(32, 45, 86);"/>
                      </g>
                      <g id="Group_224">
                        <path id="Path_130" class="st31" d="M1835.27,1114.86l-8.41-4.86c-2.9-1.47-6.32-1.47-9.22,0l-8.36,4.86 c-2.53,1.47-2.52,3.87,0.03,5.34l8.41,4.86c2.9,1.47,6.33,1.48,9.23,0.01l8.36-4.86 C1837.85,1118.74,1837.82,1116.33,1835.27,1114.86L1835.27,1114.86z M1808.35,1120.76c-3.08-1.78-3.1-4.68-0.04-6.46 l8.36-4.86c3.5-1.78,7.65-1.78,11.15,0l8.41,4.86c3.08,1.78,3.1,4.68,0.04,6.46l-8.36,4.86c-3.5,1.78-7.65,1.78-11.15,0 L1808.35,1120.76L1808.35,1120.76z M1840.54,1109.66l-4.71-2.72c-7.53-4.35-19.69-4.34-27.17,0.01l-4.69,2.72 c-7.48,4.35-7.46,11.39,0.08,15.74l4.71,2.72c7.53,4.35,19.7,4.35,27.18,0l4.69-2.72 C1848.11,1121.06,1848.07,1114.01,1840.54,1109.66L1840.54,1109.66z" style="fill: rgb(32, 45, 86);"/>
                      </g>
                      <g id="Group_225">
                        <path id="Path_131" class="st0" d="M1809.32,1120.2c-2.55-1.47-2.56-3.87-0.03-5.34l8.36-4.86c2.9-1.47,6.32-1.47,9.22,0 l8.41,4.86c2.55,1.47,2.58,3.88,0.04,5.35l-8.36,4.86c-2.9,1.47-6.33,1.47-9.23-0.01L1809.32,1120.2L1809.32,1120.2z M1836.24,1114.3l-8.41-4.86c-3.5-1.78-7.65-1.78-11.15,0l-8.36,4.86c-3.06,1.78-3.05,4.68,0.04,6.46l8.41,4.86 c3.5,1.78,7.65,1.78,11.15,0l8.36-4.86C1839.34,1118.98,1839.32,1116.09,1836.24,1114.3L1836.24,1114.3z" style="fill: rgb(43, 60, 115);"/>
                      </g>
                      <g id="Group_226">
                        <path id="Path_132" class="st32" d="M2329.48,955.03l-107.96-62.33l-61.38,35.67l107.96,62.33L2329.48,955.03z" style="fill: rgb(47, 249, 199);"/>
                      </g>
                      <g id="Group_227">
                        <path id="Path_133" class="st33" d="M2268.1,990.7l-107.96-62.33l-30.68,17.83l107.96,62.33L2268.1,990.7L2268.1,990.7z" style="fill: rgb(156, 255, 215);"/>
                      </g>
                      <g id="Group_228">
                        <path id="Path_134" class="st34" d="M2193.13,1028.69l-103.14-59.55l-69.47,40.37l103.14,59.55L2193.13,1028.69z" style="fill: rgb(167, 204, 255);"/>
                      </g>
                      <g id="Group_229">
                        <path id="Path_135" class="st34" d="M2048.36,1112.82l-103.14-59.55l-61.37,35.66l103.14,59.55L2048.36,1112.82 L2048.36,1112.82z" style="fill: rgb(167, 204, 255);"/>
                      </g>
                      <g id="Group_230">
                        <path id="Path_136" class="st4" d="M1897.16,972.11l7.09-4.12l65.61,37.88l-7.09,4.12L1897.16,972.11L1897.16,972.11z M1919.31,959.24l7.09-4.12L1992,993l-7.09,4.12L1919.31,959.24L1919.31,959.24z M1941.45,946.37l7.09-4.12l65.61,37.88 l-7.09,4.12L1941.45,946.37L1941.45,946.37z M1963.6,933.5l7.09-4.12l65.61,37.88l-7.09,4.12L1963.6,933.5L1963.6,933.5z M1985.74,920.63l7.09-4.12l65.61,37.88l-7.09,4.12L1985.74,920.63L1985.74,920.63z M2031.73,907.46l3.75-2.18 l44.6,25.75l-3.75,2.18L2031.73,907.46z M2069.3,911.46c-12.32-7.11-12.39-18.64-0.15-25.75 c12.24-7.11,32.14-7.11,44.46,0s12.38,18.65,0.15,25.75S2081.61,918.57,2069.3,911.46z M2221.53,892.7l-120.34-69.48 l-92.06,53.5l-266.16,154.68l120.34,69.48l20.54-11.93l61.37-35.66l75.3-43.76l69.47-40.37l39.48-22.94l30.68-17.83 L2221.53,892.7L2221.53,892.7z" style="fill: rgb(130, 251, 221);"/>
                      </g>
                      <g id="Group_231">
                        <path id="Path_137" class="st6" d="M2091.56,918.05c-8.28,0-16.57-1.83-22.9-5.48c-6.39-3.69-9.92-8.67-9.92-14.02 c-0.01-5.32,3.46-10.27,9.77-13.94c12.57-7.3,33.09-7.3,45.74,0l0,0c6.39,3.69,9.91,8.67,9.91,14.02 c0.01,5.32-3.46,10.27-9.76,13.94C2108.12,916.22,2099.84,918.05,2091.56,918.05z M2091.35,881.65 c-7.82,0-15.63,1.72-21.56,5.17c-5.49,3.19-8.51,7.36-8.51,11.73c0.01,4.41,3.08,8.6,8.65,11.82 c11.94,6.9,31.32,6.9,43.18,0c5.49-3.19,8.5-7.35,8.5-11.73c-0.01-4.41-3.07-8.61-8.64-11.82 C2107.01,883.37,2099.17,881.64,2091.35,881.65L2091.35,881.65z" style="fill: rgb(243, 252, 255);"/>
                      </g>
                      <g id="Group_232">
                        <path id="Path_138" class="st6" d="M2080.08,931.04l-44.6-25.75l-3.75,2.18l44.6,25.75L2080.08,931.04z" style="fill: rgb(243, 252, 255);"/>
                      </g>
                      <g id="Group_233">
                        <path id="Path_139" class="st6" d="M2058.44,954.39l-65.61-37.88l-7.09,4.12l65.61,37.88L2058.44,954.39z" style="fill: rgb(243, 252, 255);"/>
                      </g>
                      <g id="Group_234">
                        <path id="Path_140" class="st6" d="M2036.29,967.26l-65.61-37.88l-7.09,4.12l65.61,37.88L2036.29,967.26L2036.29,967.26z " style="fill: rgb(243, 252, 255);"/>
                      </g>
                      <g id="Group_235">
                        <path id="Path_141" class="st6" d="M2014.15,980.13l-65.61-37.88l-7.09,4.12l65.61,37.88L2014.15,980.13z" style="fill: rgb(243, 252, 255);"/>
                      </g>
                      <g id="Group_236">
                        <path id="Path_142" class="st6" d="M1992,993l-65.61-37.88l-7.09,4.12l65.61,37.88L1992,993z" style="fill: rgb(243, 252, 255);"/>
                      </g>
                      <g id="Group_237">
                        <path id="Path_143" class="st6" d="M1969.86,1005.87l-65.61-37.88l-7.09,4.12l65.61,37.88L1969.86,1005.87z" style="fill: rgb(243, 252, 255);"/>
                      </g>
                    </g>
                  </g>
                </g>
              </g>
            </g>
            <g id="Group_242">
              <path id="Path_145" class="st4" d="M2375.37,933.96c-0.02,0.23-0.04,0.46-0.08,0.69c-0.03,0.19-0.09,0.38-0.14,0.56 c-0.06,0.22-0.11,0.44-0.19,0.66c-0.06,0.18-0.15,0.36-0.23,0.53c-0.1,0.23-0.2,0.46-0.32,0.68 c-0.09,0.16-0.19,0.32-0.29,0.48c-0.16,0.26-0.33,0.52-0.52,0.77c-0.11,0.15-0.23,0.3-0.35,0.44c-0.29,0.35-0.6,0.68-0.93,1 c-0.12,0.12-0.23,0.24-0.36,0.36c-0.21,0.19-0.45,0.37-0.68,0.56c-0.2,0.16-0.4,0.33-0.61,0.48 c-0.25,0.18-0.52,0.35-0.79,0.53c-0.27,0.17-0.53,0.36-0.83,0.53l-436.11,253.44c-0.67,0.38-1.36,0.73-2.07,1.05 c-0.2,0.09-0.42,0.18-0.62,0.27c-0.56,0.24-1.14,0.45-1.73,0.66c-0.21,0.07-0.42,0.15-0.63,0.22 c-0.37,0.12-0.75,0.22-1.13,0.32c-0.29,0.08-0.57,0.16-0.86,0.23c-0.4,0.1-0.81,0.18-1.23,0.26 c-0.27,0.06-0.54,0.12-0.82,0.17c-0.82,0.15-1.66,0.26-2.5,0.35c-0.26,0.03-0.52,0.04-0.79,0.07 c-0.49,0.04-0.98,0.08-1.48,0.1c-0.32,0.01-0.64,0.02-0.95,0.03c-0.4,0.01-0.8,0.01-1.2,0.01c-0.34-0.01-0.67-0.02-1.01-0.03 c-0.37-0.02-0.74-0.03-1.11-0.06c-0.34-0.02-0.68-0.05-1.02-0.08c-0.37-0.04-0.73-0.08-1.1-0.12 c-0.33-0.04-0.65-0.09-0.98-0.14c-0.39-0.06-0.78-0.13-1.16-0.2c-0.31-0.06-0.61-0.12-0.91-0.19 c-0.46-0.1-0.91-0.21-1.36-0.33c-0.25-0.07-0.5-0.13-0.75-0.2c-0.81-0.23-1.6-0.5-2.36-0.8c-0.11-0.04-0.21-0.09-0.31-0.13 c-1.02-0.41-2.01-0.88-2.97-1.42l-219.01-126.44c-4.33-2.5-6.48-5.78-6.47-9.05l-0.07,24.41c-0.01,3.28,2.15,6.55,6.47,9.05 l219.01,126.45c0.96,0.54,1.95,1.02,2.97,1.42c0.07,0.03,0.12,0.07,0.19,0.09c0.04,0.02,0.08,0.03,0.12,0.04 c0.76,0.3,1.55,0.56,2.35,0.79c0.06,0.02,0.12,0.05,0.19,0.06c0.19,0.05,0.38,0.09,0.57,0.14c0.45,0.12,0.9,0.23,1.36,0.33 c0.12,0.03,0.24,0.06,0.36,0.09c0.18,0.04,0.37,0.06,0.55,0.1c0.38,0.07,0.77,0.14,1.16,0.2c0.16,0.02,0.31,0.06,0.46,0.08 c0.17,0.03,0.35,0.04,0.52,0.06c0.36,0.05,0.73,0.09,1.09,0.12c0.17,0.02,0.34,0.04,0.52,0.06s0.33,0.02,0.5,0.03 c0.37,0.03,0.74,0.05,1.11,0.06c0.19,0.01,0.37,0.03,0.56,0.03c0.15,0,0.3,0,0.45,0c0.4,0.01,0.8,0,1.2-0.01 c0.2,0,0.4,0,0.59,0c0.12,0,0.24-0.02,0.36-0.02c0.49-0.02,0.99-0.06,1.48-0.1c0.2-0.02,0.4-0.02,0.6-0.04 c0.06-0.01,0.12-0.02,0.19-0.03c0.84-0.09,1.68-0.2,2.5-0.35c0.04-0.01,0.08-0.01,0.12-0.02c0.24-0.04,0.47-0.1,0.71-0.15 c0.41-0.08,0.82-0.16,1.22-0.26c0.29-0.07,0.57-0.15,0.86-0.23c0.38-0.1,0.76-0.21,1.13-0.32c0.08-0.03,0.16-0.04,0.24-0.07 c0.13-0.04,0.26-0.1,0.39-0.15c0.59-0.2,1.16-0.42,1.73-0.66c0.21-0.09,0.42-0.17,0.63-0.27c0.71-0.31,1.4-0.66,2.07-1.05 l436.11-253.44c0.09-0.05,0.18-0.1,0.27-0.16c0.2-0.12,0.38-0.25,0.57-0.38c0.27-0.17,0.54-0.35,0.79-0.53 c0.22-0.16,0.41-0.32,0.61-0.48c0.23-0.18,0.47-0.37,0.68-0.56c0.04-0.04,0.09-0.07,0.14-0.11c0.08-0.08,0.14-0.16,0.23-0.24 c0.33-0.32,0.64-0.65,0.93-1c0.06-0.08,0.14-0.15,0.2-0.22s0.1-0.15,0.15-0.22c0.19-0.25,0.36-0.51,0.52-0.77 c0.07-0.11,0.16-0.21,0.22-0.32c0.03-0.05,0.05-0.11,0.08-0.17c0.12-0.23,0.22-0.46,0.32-0.68c0.06-0.13,0.14-0.26,0.19-0.4 c0.02-0.05,0.02-0.09,0.04-0.14c0.08-0.22,0.13-0.44,0.19-0.66c0.04-0.15,0.1-0.3,0.13-0.44c0.01-0.04,0.01-0.08,0.01-0.12 c0.04-0.23,0.06-0.46,0.08-0.69c0.01-0.15,0.05-0.3,0.05-0.45c0-0.06,0-0.13,0-0.19l0.07-24.41 C2375.43,933.53,2375.39,933.75,2375.37,933.96z" style="fill: rgb(130, 251, 221);"/>
            </g>
            <g id="Group_243">
              <path id="Path_146" class="st35" d="M2308.4,987.14v7.22l-57.76,33.77v-7.26L2308.4,987.14z" style="fill: rgb(93, 104, 138);"/>
            </g>
          </g>
          <g id="Group_245">
            <path id="Path_147" class="st31" d="M1772.94,1133.87v5.35c0,0.28,0.15,0.54,0.39,0.69l31.2,19.08 c0.38,0.23,0.87,0.11,1.11-0.27c0.08-0.13,0.12-0.27,0.12-0.42v-6.03c0-2.48-1.32-4.77-3.47-6.01l-25.4-14.67 c-1.26-0.73-2.87-0.29-3.59,0.96C1773.06,1132.96,1772.94,1133.41,1772.94,1133.87z" style="fill: rgb(32, 45, 86);"/>
          </g>
          <g id="Group_247">
            <g id="Group_246">
              <path id="Path_148" class="st33" d="M1822.95,987.36l-140.82-70.91c-2.83-1.42-3.97-4.86-2.55-7.69 c0.51-1.02,1.32-1.87,2.32-2.43l39.81-22.53l2.56,1.51l-41.12,23.24c-1.53,0.86-2.08,2.8-1.22,4.33 c0.31,0.55,0.78,1,1.35,1.29l143.29,71.71L1822.95,987.36z" style="fill: rgb(156, 255, 215);"/>
            </g>
          </g>
          <g id="Group_249">
            <g id="Group_248">
              <path id="Path_149" class="st32" d="M2341.18,1003.44c-1.07,0-2.12-0.27-3.06-0.79l-46.91-26.15l1.24-2.23l46.91,26.15 c1.19,0.66,2.64,0.63,3.79-0.09l113.88-70.57c1.76-1.09,2.3-3.4,1.21-5.15c-0.33-0.54-0.8-0.98-1.35-1.29l-58.34-32.63 l2.34-1.61l57.24,32.02c3.03,1.7,4.11,5.53,2.42,8.56c-0.52,0.93-1.27,1.71-2.18,2.28l-113.88,70.57 C2343.5,1003.11,2342.35,1003.44,2341.18,1003.44z" style="fill: rgb(47, 249, 199);"/>
            </g>
          </g>
          <g id="Group_358">
            <g id="Group_250" class="st36" style="opacity: 0.4;">
              <path id="Path_150" class="st0" d="M1884.41,1013.75l-64.68-37.34l-68.06,39.55l171.37,98.94l60.32,34.83l68.05-39.55 L1884.41,1013.75z" style="fill: rgb(43, 60, 115);"/>
            </g>
            <g id="Group_357">
              <g id="Group_277">
                <g id="Group_252">
                  <g id="Group_251">
                    <path id="Path_151" class="st37" d="M1834.49,943.27c-9.66-5.58-25.34-5.58-34.94,0c0.02-5.19,0.03-10.39,0.04-15.58 c9.6-5.58,25.28-5.59,34.94-0.01C1834.52,932.88,1834.5,938.08,1834.49,943.27z" style="fill: rgb(255, 211, 62);"/>
                  </g>
                </g>
                <g id="Group_254">
                  <g id="Group_253">
                    <path id="Path_152" class="st37" d="M1799.55,943.28c-4.77,2.77-7.16,6.41-7.17,10.05l0.04-15.58 c0.01-3.64,2.4-7.27,7.17-10.05C1799.58,932.89,1799.56,938.08,1799.55,943.28z" style="fill: rgb(255, 211, 62);"/>
                  </g>
                </g>
                <g id="Group_256">
                  <g id="Group_255">
                    <path id="Path_153" class="st37" d="M1841.77,953.47c0.01-3.69-2.42-7.38-7.28-10.19c0.02-5.19,0.03-10.39,0.04-15.58 c4.86,2.81,7.29,6.5,7.28,10.19C1841.8,942.56,1841.78,948.79,1841.77,953.47z" style="fill: rgb(255, 211, 62);"/>
                  </g>
                </g>
                <g id="Group_258">
                  <g id="Group_257">
                    <path id="Path_154" class="st2" d="M1837.99,937.88l-0.04,15.58c0.01-3.12-2.05-6.25-6.16-8.62 c-8.17-4.72-21.42-4.72-29.53,0c-4.03,2.34-6.05,5.42-6.06,8.49l0.04-15.58c0.01-3.08,2.03-6.15,6.06-8.49 c8.11-4.72,21.36-4.72,29.53,0C1835.94,931.64,1838,934.76,1837.99,937.88z" style="fill: rgb(255, 255, 255);"/>
                  </g>
                </g>
                <g id="Group_260">
                  <g id="Group_259">
                    <path id="Path_155" class="st37" d="M1837.94,953.46c-0.01,3.08-2.03,6.15-6.05,8.49c0.02-5.19,0.03-10.39,0.04-15.58 c4.03-2.34,6.05-5.41,6.05-8.49C1837.97,942.55,1837.96,948.79,1837.94,953.46z" style="fill: rgb(255, 211, 62);"/>
                  </g>
                </g>
                <g id="Group_262">
                  <g id="Group_261">
                    <path id="Path_156" class="st37" d="M1802.35,961.95c-4.11-2.37-6.16-5.49-6.15-8.61l0.04-15.58 c-0.01,3.12,2.04,6.24,6.15,8.61C1802.38,951.56,1802.36,956.75,1802.35,961.95z" style="fill: rgb(255, 211, 62);"/>
                  </g>
                </g>
                <g id="Group_264">
                  <g id="Group_263">
                    <path id="Path_157" class="st37" d="M1831.83,929.26c8.17,4.72,8.22,12.4,0.1,17.11s-21.37,4.71-29.54,0 s-8.21-12.39-0.1-17.11S1823.66,924.55,1831.83,929.26z" style="fill: rgb(255, 211, 62);"/>
                  </g>
                </g>
                <g id="Group_266">
                  <g id="Group_265">
                    <path id="Path_158" class="st37" d="M1831.89,961.95c-8.11,4.72-21.37,4.71-29.54-0.01c0.01-5.19,0.03-10.39,0.04-15.58 c8.17,4.72,21.43,4.72,29.54,0C1831.92,951.56,1831.91,956.76,1831.89,961.95z" style="fill: rgb(255, 211, 62);"/>
                  </g>
                </g>
                <g id="Group_268">
                  <g id="Group_267">
                    <path id="Path_159" class="st2" d="M1841.81,937.89l-0.04,15.58c-0.01,3.64-2.4,7.28-7.17,10.05 c-9.6,5.58-25.28,5.58-34.94-0.01c-4.86-2.81-7.29-6.5-7.28-10.19l0.04-15.58c-0.01,3.69,2.42,7.38,7.28,10.19 c9.67,5.58,25.34,5.58,34.94,0C1839.41,945.17,1841.8,941.53,1841.81,937.89z" style="fill: rgb(255, 255, 255);"/>
                  </g>
                </g>
                <g id="Group_270">
                  <g id="Group_269">
                    <path id="Path_160" class="st2" d="M1834.53,927.69c9.67,5.58,9.72,14.66,0.11,20.24s-25.28,5.58-34.94,0 s-9.71-14.65-0.11-20.23S1824.87,922.11,1834.53,927.69z M1802.4,946.37c8.17,4.72,21.43,4.72,29.54,0s8.06-12.4-0.1-17.11 s-21.42-4.72-29.53,0S1794.23,941.65,1802.4,946.37L1802.4,946.37z" style="fill: rgb(255, 255, 255);"/>
                  </g>
                </g>
                <g id="Group_272">
                  <g id="Group_271">
                    <path id="Path_161" class="st37" d="M1883.48,936.71l-0.04,15.58l-68.05,39.55l0.04-15.58L1883.48,936.71z" style="fill: rgb(255, 211, 62);"/>
                  </g>
                </g>
                <g id="Group_274">
                  <g id="Group_273">
                    <path id="Path_162" class="st37" d="M1818.8,899.37l64.68,37.34l-68.05,39.56l-64.68-37.34L1818.8,899.37z M1799.7,947.93 c9.67,5.58,25.34,5.58,34.94,0s9.55-14.66-0.11-20.24s-25.34-5.58-34.94,0.01S1790.04,942.34,1799.7,947.93L1799.7,947.93z " style="fill: rgb(255, 211, 62);"/>
                  </g>
                </g>
                <g id="Group_276">
                  <g id="Group_275">
                    <path id="Path_163" class="st38" d="M1815.43,976.26l-0.04,15.58l-64.68-37.34l0.04-15.58L1815.43,976.26z" style="fill: rgb(255, 168, 60);"/>
                  </g>
                </g>
              </g>
              <g id="Group_356">
                <g id="Group_279">
                  <g id="Group_278">
                    <path id="Path_164" class="st6" d="M1886.34,951.66l-0.04,15.58c-1.42-0.72-3.09-0.72-4.51,0l0.04-15.58 C1883.25,950.94,1884.93,950.94,1886.34,951.66z" style="fill: rgb(243, 252, 255);"/>
                  </g>
                </g>
                <g id="Group_281">
                  <g id="Group_280">
                    <path id="Path_165" class="st6" d="M1881.83,951.66l-0.04,15.58l-4.49,2.61l0.04-15.58L1881.83,951.66z" style="fill: rgb(243, 252, 255);"/>
                  </g>
                </g>
                <g id="Group_283">
                  <g id="Group_282">
                    <path id="Path_166" class="st6" d="M1876.37,971.14l0.04-15.58c0.05-0.57,0.41-1.07,0.93-1.3l-0.04,15.58 C1876.78,970.08,1876.42,970.57,1876.37,971.14z" style="fill: rgb(243, 252, 255);"/>
                  </g>
                </g>
                <g id="Group_285">
                  <g id="Group_284">
                    <path id="Path_167" class="st34" d="M1876.37,971.14l0.04-15.58c0.05,0.58,0.41,1.08,0.94,1.32l-0.04,15.58 C1876.79,972.22,1876.42,971.72,1876.37,971.14z" style="fill: rgb(167, 204, 255);"/>
                  </g>
                </g>
                <g id="Group_287">
                  <g id="Group_286">
                    <path id="Path_168" class="st6" d="M1983.06,1007.5l-0.04,15.58l-96.72-55.84l0.04-15.58L1983.06,1007.5z" style="fill: rgb(243, 252, 255);"/>
                  </g>
                </g>
                <g id="Group_289">
                  <g id="Group_288">
                    <path id="Path_169" class="st34" d="M1974.08,1012.72l-0.04,15.58l-96.72-55.84l0.04-15.58L1974.08,1012.72z" style="fill: rgb(167, 204, 255);"/>
                  </g>
                </g>
                <g id="Group_291">
                  <g id="Group_290">
                    <path id="Path_170" class="st6" d="M1932.95,995.08l-0.04,15.58l-60.86-35.14l0.04-15.58L1932.95,995.08z" style="fill: rgb(243, 252, 255);"/>
                  </g>
                </g>
                <g id="Group_293">
                  <g id="Group_292">
                    <path id="Path_171" class="st34" d="M1928.46,997.69l-0.04,15.58l-60.86-35.14l0.04-15.58L1928.46,997.69z" style="fill: rgb(167, 204, 255);"/>
                  </g>
                </g>
                <g id="Group_295">
                  <g id="Group_294">
                    <path id="Path_172" class="st6" d="M1866.61,976.82l0.04-15.58c0.05-0.57,0.41-1.07,0.93-1.3c1.42-0.72,3.09-0.72,4.51,0 l-0.04,15.58c-1.42-0.72-3.09-0.72-4.51,0C1867.02,975.75,1866.66,976.25,1866.61,976.82z" style="fill: rgb(243, 252, 255);"/>
                  </g>
                </g>
                <g id="Group_297">
                  <g id="Group_296">
                    <path id="Path_173" class="st34" d="M1866.61,976.82l0.04-15.58c0.05,0.58,0.41,1.08,0.94,1.31l-0.05,15.58 C1867.02,977.9,1866.66,977.39,1866.61,976.82z" style="fill: rgb(167, 204, 255);"/>
                  </g>
                </g>
                <g id="Group_299">
                  <g id="Group_298">
                    <path id="Path_174" class="st6" d="M1923.64,1000.49l-0.04,15.58l-60.86-35.14l0.04-15.58L1923.64,1000.49z" style="fill: rgb(243, 252, 255);"/>
                  </g>
                </g>
                <g id="Group_301">
                  <g id="Group_300">
                    <path id="Path_175" class="st34" d="M1919.15,1003.1l-0.04,15.58l-60.86-35.14l0.04-15.58L1919.15,1003.1z" style="fill: rgb(167, 204, 255);"/>
                  </g>
                </g>
                <g id="Group_303">
                  <g id="Group_302">
                    <path id="Path_176" class="st6" d="M1857.3,982.23l0.04-15.58c0.05-0.57,0.41-1.07,0.93-1.3c1.42-0.72,3.09-0.72,4.51,0 l-0.05,15.58c-1.42-0.72-3.09-0.72-4.51,0C1857.71,981.16,1857.35,981.66,1857.3,982.23z" style="fill: rgb(243, 252, 255);"/>
                  </g>
                </g>
                <g id="Group_305">
                  <g id="Group_304">
                    <path id="Path_177" class="st34" d="M1857.3,982.23l0.04-15.58c0.05,0.58,0.41,1.08,0.94,1.32l-0.04,15.58 C1857.71,983.31,1857.35,982.8,1857.3,982.23z" style="fill: rgb(167, 204, 255);"/>
                  </g>
                </g>
                <g id="Group_307">
                  <g id="Group_306">
                    <path id="Path_178" class="st6" d="M1914.32,1005.9l-0.04,15.58l-60.86-35.14l0.04-15.58L1914.32,1005.9z" style="fill: rgb(243, 252, 255);"/>
                  </g>
                </g>
                <g id="Group_309">
                  <g id="Group_308">
                    <path id="Path_179" class="st34" d="M1909.84,1008.51l-0.04,15.58l-60.86-35.14l0.04-15.58L1909.84,1008.51z" style="fill: rgb(167, 204, 255);"/>
                  </g>
                </g>
                <g id="Group_311">
                  <g id="Group_310">
                    <path id="Path_180" class="st6" d="M1848.92,986.34c-0.52,0.23-0.88,0.73-0.93,1.3l0.05-15.58 c0.05-0.57,0.41-1.07,0.93-1.3c1.41-0.72,3.09-0.72,4.5,0.01c-0.01,4.59-0.03,9.17-0.04,13.76l-0.01,1.82 C1852.01,985.62,1850.33,985.62,1848.92,986.34z" style="fill: rgb(243, 252, 255);"/>
                  </g>
                </g>
                <g id="Group_313">
                  <g id="Group_312">
                    <path id="Path_181" class="st34" d="M1847.99,987.64l0.04-15.58c0.05,0.58,0.41,1.08,0.94,1.32l-0.04,15.58 C1848.4,988.72,1848.04,988.22,1847.99,987.64z" style="fill: rgb(167, 204, 255);"/>
                  </g>
                </g>
                <g id="Group_315">
                  <g id="Group_314">
                    <path id="Path_182" class="st6" d="M1932.91,1010.66c0.02-5.19,0.03-10.39,0.04-15.58c0.53,0.23,0.89,0.74,0.94,1.31 l-0.04,15.58C1933.79,1011.39,1933.43,1010.89,1932.91,1010.66z" style="fill: rgb(243, 252, 255);"/>
                  </g>
                </g>
                <g id="Group_317">
                  <g id="Group_316">
                    <path id="Path_183" class="st34" d="M1933.89,996.39l-0.04,15.58c-0.05,0.57-0.41,1.07-0.93,1.3 c-1.42,0.72-3.09,0.72-4.51,0l0.04-15.58c1.42,0.72,3.09,0.72,4.51,0C1933.48,997.46,1933.84,996.96,1933.89,996.39z" style="fill: rgb(167, 204, 255);"/>
                  </g>
                </g>
                <g id="Group_319">
                  <g id="Group_318">
                    <path id="Path_184" class="st6" d="M1923.6,1016.07c0.01-5.19,0.03-10.39,0.04-15.58c0.53,0.24,0.89,0.74,0.94,1.31 l-0.04,15.58C1924.48,1016.81,1924.12,1016.3,1923.6,1016.07z" style="fill: rgb(243, 252, 255);"/>
                  </g>
                </g>
                <g id="Group_321">
                  <g id="Group_320">
                    <path id="Path_185" class="st34" d="M1924.58,1001.8l-0.05,15.58c-0.05,0.57-0.41,1.07-0.93,1.3 c-1.42,0.72-3.09,0.72-4.51,0l0.04-15.58c1.42,0.72,3.09,0.72,4.51,0C1924.17,1002.87,1924.53,1002.37,1924.58,1001.8z" style="fill: rgb(167, 204, 255);"/>
                  </g>
                </g>
                <g id="Group_323">
                  <g id="Group_322">
                    <path id="Path_186" class="st6" d="M1914.27,1021.48c0.02-5.19,0.03-10.39,0.04-15.58c0.53,0.23,0.89,0.74,0.94,1.32 l-0.04,15.58C1915.16,1022.22,1914.8,1021.72,1914.27,1021.48z" style="fill: rgb(243, 252, 255);"/>
                  </g>
                </g>
                <g id="Group_325">
                  <g id="Group_324">
                    <path id="Path_187" class="st6" d="M1983.01,1023.08c0.02-5.19,0.03-10.39,0.04-15.58c0.53,0.23,0.89,0.73,0.94,1.31 l-0.04,15.58C1983.9,1023.81,1983.54,1023.31,1983.01,1023.08z" style="fill: rgb(243, 252, 255);"/>
                  </g>
                </g>
                <g id="Group_327">
                  <g id="Group_326">
                    <path id="Path_188" class="st34" d="M1915.27,1007.22l-0.04,15.58c-0.05,0.56-0.4,1.06-0.92,1.29 c-1.42,0.72-3.09,0.72-4.51,0l0.05-15.58c1.42,0.72,3.09,0.72,4.51,0C1914.86,1008.28,1915.21,1007.78,1915.27,1007.22z" style="fill: rgb(167, 204, 255);"/>
                  </g>
                </g>
                <g id="Group_329">
                  <g id="Group_328">
                    <path id="Path_189" class="st34" d="M1914.32,1005.9c1.25,0.72,1.26,1.89,0.02,2.61c-1.42,0.72-3.09,0.72-4.51,0 l-60.86-35.14c-1.25-0.72-1.26-1.89-0.02-2.61c1.41-0.72,3.09-0.72,4.5,0.01L1914.32,1005.9z" style="fill: rgb(167, 204, 255);"/>
                  </g>
                </g>
                <g id="Group_331">
                  <g id="Group_330">
                    <path id="Path_190" class="st34" d="M1983.99,1008.81l-0.04,15.58c-0.05,0.57-0.41,1.07-0.93,1.3l0.04-15.58 C1983.59,1009.87,1983.94,1009.38,1983.99,1008.81z" style="fill: rgb(167, 204, 255);"/>
                  </g>
                </g>
                <g id="Group_333">
                  <g id="Group_332">
                    <path id="Path_191" class="st34" d="M1983.06,1010.11l-0.04,15.58l-4.49,2.61l0.04-15.58L1983.06,1010.11z" style="fill: rgb(167, 204, 255);"/>
                  </g>
                </g>
                <g id="Group_335">
                  <g id="Group_334">
                    <path id="Path_192" class="st34" d="M1978.58,1012.71l-0.05,15.58c-1.41,0.72-3.09,0.72-4.5,0.01l0.04-15.58 C1975.49,1013.44,1977.17,1013.44,1978.58,1012.71z" style="fill: rgb(167, 204, 255);"/>
                  </g>
                </g>
                <g id="Group_337">
                  <g id="Group_336">
                    <path id="Path_193" class="st39" d="M1883.48,936.71l167.01,96.43l-68.05,39.55l-60.32-34.83l-106.69-61.59L1883.48,936.71 z M1978.58,1012.71l4.48-2.61c0.72-0.25,1.1-1.03,0.85-1.75c-0.14-0.4-0.46-0.72-0.86-0.86l-96.72-55.84 c-1.42-0.72-3.09-0.72-4.51,0l-4.49,2.61c-1.24,0.72-1.24,1.89,0.02,2.61l96.72,55.84 C1975.5,1013.44,1977.17,1013.44,1978.58,1012.71L1978.58,1012.71z M1928.46,997.69c1.42,0.72,3.09,0.72,4.51,0 c1.24-0.72,1.24-1.89-0.02-2.61l-60.86-35.14c-1.42-0.72-3.09-0.72-4.51,0c-1.24,0.72-1.24,1.89,0.02,2.61L1928.46,997.69z M1919.15,1003.1c1.42,0.72,3.09,0.72,4.51,0c1.24-0.72,1.24-1.89-0.01-2.61l-60.86-35.14c-1.42-0.72-3.09-0.72-4.51,0 c-1.24,0.72-1.24,1.89,0.02,2.61L1919.15,1003.1L1919.15,1003.1z M1909.84,1008.51c1.42,0.72,3.09,0.72,4.51,0 c1.24-0.72,1.23-1.88-0.02-2.61l-60.86-35.14c-1.41-0.72-3.09-0.72-4.5-0.01c-1.24,0.72-1.24,1.89,0.01,2.61 L1909.84,1008.51L1909.84,1008.51z" style="fill: rgb(253, 254, 255);"/>
                  </g>
                </g>
                <g id="Group_339">
                  <g id="Group_338">
                    <path id="Path_194" class="st34" d="M1932.95,995.08c1.25,0.72,1.25,1.89,0.02,2.61c-1.42,0.72-3.09,0.72-4.51,0 l-60.86-35.14c-1.25-0.72-1.25-1.89-0.02-2.61c1.42-0.72,3.09-0.72,4.51,0L1932.95,995.08z" style="fill: rgb(167, 204, 255);"/>
                  </g>
                </g>
                <g id="Group_341">
                  <g id="Group_340">
                    <path id="Path_195" class="st34" d="M1923.64,1000.49c1.25,0.72,1.25,1.89,0.01,2.61c-1.42,0.72-3.09,0.72-4.51,0 l-60.86-35.14c-1.25-0.72-1.26-1.89-0.02-2.61c1.42-0.72,3.09-0.72,4.51,0L1923.64,1000.49z" style="fill: rgb(167, 204, 255);"/>
                  </g>
                </g>
                <g id="Group_343">
                  <g id="Group_342">
                    <path id="Path_196" class="st34" d="M1983.06,1007.5c0.72,0.24,1.11,1.02,0.86,1.75c-0.14,0.4-0.45,0.72-0.86,0.86 l-4.48,2.61c-1.41,0.72-3.09,0.72-4.5,0l-96.72-55.84c-1.25-0.72-1.26-1.89-0.02-2.61l4.49-2.61 c1.42-0.72,3.09-0.72,4.51,0L1983.06,1007.5z" style="fill: rgb(167, 204, 255);"/>
                  </g>
                </g>
                <g id="Group_345">
                  <g id="Group_344">
                    <path id="Path_197" class="st40" d="M1922.12,1037.86l-0.04,15.58l-106.69-61.6l0.04-15.58L1922.12,1037.86z" style="fill: rgb(232, 249, 255);"/>
                  </g>
                </g>
                <g id="Group_347">
                  <g id="Group_346">
                    <path id="Path_198" class="st6" d="M2050.5,1033.14l-0.04,15.58l-68.05,39.55l0.04-15.58L2050.5,1033.14z" style="fill: rgb(243, 252, 255);"/>
                  </g>
                </g>
                <g id="Group_349">
                  <g id="Group_348">
                    <path id="Path_199" class="st37" d="M1986.8,1075.2l-0.04,15.58l-64.68-37.34l0.04-15.58L1986.8,1075.2z" style="fill: rgb(255, 211, 62);"/>
                  </g>
                </g>
                <g id="Group_351">
                  <g id="Group_350">
                    <path id="Path_200" class="st40" d="M1982.44,1072.69l-0.04,15.58l-60.32-34.83l0.04-15.58L1982.44,1072.69z" style="fill: rgb(232, 249, 255);"/>
                  </g>
                </g>
                <g id="Group_353">
                  <g id="Group_352">
                    <path id="Path_201" class="st37" d="M2054.86,1035.66l-68.05,39.55l-64.68-37.34l60.32,34.83l68.05-39.55L2054.86,1035.66z " style="fill: rgb(255, 211, 62);"/>
                  </g>
                </g>
                <g id="Group_355">
                  <g id="Group_354">
                    <path id="Path_202" class="st38" d="M2054.86,1035.66l-0.04,15.58l-68.05,39.55l0.04-15.58L2054.86,1035.66z" style="fill: rgb(255, 168, 60);"/>
                  </g>
                </g>
              </g>
            </g>
          </g>
          <g id="Group_359">
            <path id="Path_203" class="st6" d="M2091.56,898.93c-8.28,0-16.57-1.83-22.9-5.48c-6.39-3.69-9.92-8.67-9.92-14.02 c-0.01-5.32,3.46-10.27,9.77-13.94c12.57-7.3,33.09-7.3,45.74,0l0,0c6.39,3.69,9.91,8.67,9.91,14.02 c0.01,5.32-3.46,10.27-9.76,13.94C2108.12,897.11,2099.84,898.93,2091.56,898.93z M2091.35,862.53 c-7.82,0-15.63,1.72-21.56,5.17c-5.49,3.19-8.51,7.36-8.51,11.73c0.01,4.41,3.08,8.6,8.65,11.82c11.94,6.9,31.32,6.9,43.18,0 c5.49-3.19,8.5-7.35,8.5-11.73c-0.01-4.41-3.07-8.61-8.64-11.82C2107.01,864.26,2099.17,862.53,2091.35,862.53L2091.35,862.53z " style="fill: rgb(243, 252, 255);"/>
          </g>
          <g id="Group_360" class="st41" style="opacity: 0.48;">
            <path id="Path_204" class="st6" d="M2108.83,869.38c-9.67-5.58-25.28-5.58-34.87,0s-9.55,14.62,0.11,20.2s25.27,5.58,34.87,0 S2118.49,874.96,2108.83,869.38z" style="fill: rgb(243, 252, 255);"/>
          </g>
          <g id="Group_361" class="st41" style="opacity: 0.48;">
            <path id="Path_205" class="st6" d="M2100.77,874.07c-5.18-2.99-13.55-2.99-18.69,0c-5.14,2.99-5.12,7.83,0.06,10.83 c5.18,2.99,13.54,2.99,18.69,0S2105.95,877.06,2100.77,874.07z" style="fill: rgb(243, 252, 255);"/>
          </g>
          <g id="Group_366">
            <linearGradient id="Path_206_1_" gradientUnits="userSpaceOnUse" x1="1013.0661" y1="1518.522" x2="1012.9891" y2="1519.481" gradientTransform="matrix(5.5129 0 0 -143.5 -3494.1709 218779.625)">
              <stop offset="0.003" style="stop-color:#FFFFFF"/>
              <stop offset="1" style="stop-color:#FFFFFF;stop-opacity:0"/>
            </linearGradient>
            <path id="Path_206" class="st42" d="M2087.85,735.98v143.5h5.51v-143.5H2087.85z" style="fill: url(#Path_206_1_); opacity: 0.53;"/>
            <linearGradient id="Path_207_1_" gradientUnits="userSpaceOnUse" x1="1013.0661" y1="1518.522" x2="1012.9891" y2="1519.481" gradientTransform="matrix(5.5129 0 0 -143.5 -3491.4148 218779.625)">
              <stop offset="0.003" style="stop-color:#FFFFFF"/>
              <stop offset="1" style="stop-color:#FFFFFF;stop-opacity:0"/>
            </linearGradient>
            <path id="Path_207" class="st43" d="M2090.6,735.98v143.5h5.51v-143.5H2090.6z" style="fill: url(#Path_207_1_); opacity: 0.53;"/>
            <g id="Group_363">
              <g id="Group_362" class="st41" style="opacity: 0.48;">
                <path id="Path_208" class="st6" d="M2091.54,787.52c-6.43,0-12.87-1.42-17.78-4.25c-4.91-2.84-7.59-6.62-7.6-10.68 c-0.01-4.04,2.65-7.81,7.49-10.62c9.76-5.67,25.69-5.67,35.51,0c4.89,2.82,7.59,6.62,7.59,10.68 c0.01,4.04-2.65,7.81-7.48,10.61C2104.39,786.11,2097.97,787.52,2091.54,787.52z M2091.38,758.97 c-6.2,0-12.39,1.37-17.09,4.1c-4.42,2.57-6.86,5.95-6.85,9.51c0,3.59,2.48,6.99,6.96,9.58c9.47,5.47,24.82,5.47,34.23,0 c4.42-2.57,6.85-5.95,6.84-9.51c-0.01-3.59-2.48-7-6.96-9.58l0,0C2103.78,760.34,2097.57,758.97,2091.38,758.97 L2091.38,758.97z" style="fill: rgb(243, 252, 255);"/>
              </g>
            </g>
            <g id="Group_365">
              <g id="Group_364" class="st41" style="opacity: 0.48;">
                <path id="Path_209" class="st6" d="M2091.5,797.22c-3.34,0.07-6.64-0.72-9.58-2.29c-2.64-1.52-4.09-3.57-4.1-5.76 c0-2.19,1.43-4.21,4.04-5.72c5.26-3.06,13.85-3.06,19.15,0c2.64,1.52,4.09,3.57,4.09,5.76s-1.43,4.21-4.03,5.72 C2098.12,796.5,2094.83,797.29,2091.5,797.22z M2091.41,781.83c-3.21-0.06-6.38,0.7-9.21,2.21c-2.39,1.39-3.7,3.21-3.7,5.13 c0,1.94,1.34,3.77,3.76,5.17c5.1,2.95,13.39,2.95,18.46,0c2.38-1.39,3.69-3.21,3.69-5.13s-1.33-3.77-3.75-5.17l0,0 C2097.81,782.53,2094.63,781.76,2091.41,781.83L2091.41,781.83z" style="fill: rgb(243, 252, 255);"/>
              </g>
            </g>
          </g>
          <g id="Group_475">
            <g id="Group_367" class="st36" style="opacity: 0.4;">
              <path id="Path_210" class="st0" d="M2005.04,942.75l-64.68-37.34l-68.05,39.55l171.37,98.94l60.32,34.83l68.05-39.55 L2005.04,942.75z" style="fill: rgb(43, 60, 115);"/>
            </g>
            <g id="Group_474">
              <g id="Group_394">
                <g id="Group_369">
                  <g id="Group_368">
                    <path id="Path_211" class="st7" d="M1956.27,858.84c-9.66-5.58-25.34-5.58-34.94,0.01c0.01-5.19,0.03-10.39,0.04-15.58 c9.6-5.58,25.28-5.59,34.94-0.01C1956.3,848.46,1956.28,853.65,1956.27,858.84z" style="fill: rgb(54, 204, 226);"/>
                  </g>
                </g>
                <g id="Group_371">
                  <g id="Group_370">
                    <path id="Path_212" class="st7" d="M1921.33,858.85c-4.77,2.77-7.16,6.41-7.17,10.05l0.04-15.58 c0.01-3.64,2.4-7.27,7.17-10.04C1921.36,848.46,1921.34,853.66,1921.33,858.85z" style="fill: rgb(54, 204, 226);"/>
                  </g>
                </g>
                <g id="Group_373">
                  <g id="Group_372">
                    <path id="Path_213" class="st7" d="M1963.55,869.04c0.01-3.69-2.42-7.38-7.29-10.19c0-1.25,0.01-2.5,0.01-3.75l0.01-4.04 c0.01-2.6,0.01-5.19,0.02-7.79c4.87,2.81,7.3,6.5,7.29,10.19C1963.58,858.13,1963.57,864.36,1963.55,869.04z" style="fill: rgb(54, 204, 226);"/>
                  </g>
                </g>
                <g id="Group_375">
                  <g id="Group_374">
                    <path id="Path_214" class="st2" d="M1959.78,853.45l-0.04,15.58c0.01-3.12-2.05-6.24-6.16-8.62 c-8.17-4.72-21.42-4.72-29.54,0.01c-4.03,2.34-6.05,5.42-6.06,8.49l0.04-15.58c0.01-3.08,2.03-6.15,6.06-8.49 c8.12-4.72,21.37-4.72,29.54-0.01C1957.74,847.2,1959.79,850.33,1959.78,853.45z" style="fill: rgb(255, 255, 255);"/>
                  </g>
                </g>
                <g id="Group_377">
                  <g id="Group_376">
                    <path id="Path_215" class="st7" d="M1959.74,869.03c-0.01,3.08-2.03,6.15-6.06,8.5c0.01-5.19,0.03-10.39,0.04-15.58 c4.04-2.34,6.06-5.42,6.06-8.5C1959.77,858.12,1959.75,864.35,1959.74,869.03z" style="fill: rgb(54, 204, 226);"/>
                  </g>
                </g>
                <g id="Group_379">
                  <g id="Group_378">
                    <path id="Path_216" class="st7" d="M1924.13,877.52c-4.11-2.37-6.16-5.49-6.15-8.61l0.04-15.58 c-0.01,3.12,2.04,6.24,6.15,8.61C1924.16,867.13,1924.15,872.33,1924.13,877.52z" style="fill: rgb(54, 204, 226);"/>
                  </g>
                </g>
                <g id="Group_381">
                  <g id="Group_380">
                    <path id="Path_217" class="st7" d="M1953.67,877.52c-8.11,4.72-21.36,4.72-29.54-0.01c0.01-5.19,0.03-10.39,0.04-15.58 c8.18,4.72,21.43,4.72,29.54,0.01C1953.7,867.14,1953.69,872.33,1953.67,877.52z" style="fill: rgb(54, 204, 226);"/>
                  </g>
                </g>
                <g id="Group_383">
                  <g id="Group_382">
                    <path id="Path_218" class="st2" d="M1963.6,853.46l-0.05,15.58c-0.01,3.64-2.4,7.28-7.17,10.05 c-9.6,5.58-25.27,5.58-34.94,0c-4.86-2.81-7.29-6.5-7.28-10.19l0.04-15.58c-0.01,3.69,2.42,7.38,7.28,10.19 c9.67,5.59,25.34,5.59,34.94,0.01C1961.2,860.73,1963.59,857.1,1963.6,853.46z" style="fill: rgb(255, 255, 255);"/>
                  </g>
                </g>
                <g id="Group_385">
                  <g id="Group_384">
                    <path id="Path_219" class="st7" d="M1940.59,814.94l64.68,37.34l-68.05,39.55l-64.68-37.34L1940.59,814.94z M1921.49,863.5 c9.67,5.59,25.34,5.59,34.94,0.01s9.56-14.66-0.11-20.24s-25.34-5.58-34.94,0.01S1911.82,857.92,1921.49,863.5z" style="fill: rgb(54, 204, 226);"/>
                  </g>
                </g>
                <g id="Group_387">
                  <g id="Group_386">
                    <path id="Path_220" class="st7" d="M1953.62,844.83c8.18,4.72,8.22,12.4,0.1,17.11s-21.36,4.72-29.54-0.01 s-8.21-12.39-0.1-17.1S1945.45,840.11,1953.62,844.83z" style="fill: rgb(54, 204, 226);"/>
                  </g>
                </g>
                <g id="Group_389">
                  <g id="Group_388">
                    <path id="Path_221" class="st2" d="M1956.31,843.27c9.67,5.58,9.71,14.66,0.11,20.24s-25.27,5.58-34.94-0.01 s-9.72-14.65-0.11-20.23S1946.65,837.68,1956.31,843.27z M1924.18,861.94c8.18,4.72,21.43,4.72,29.54,0.01 s8.08-12.4-0.1-17.11s-21.42-4.72-29.54,0.01S1916.01,857.23,1924.18,861.94L1924.18,861.94z" style="fill: rgb(255, 255, 255);"/>
                  </g>
                </g>
                <g id="Group_391">
                  <g id="Group_390">
                    <path id="Path_222" class="st7" d="M2005.27,852.29l-0.04,15.58l-68.06,39.55l0.04-15.58L2005.27,852.29z" style="fill: rgb(54, 204, 226);"/>
                  </g>
                </g>
                <g id="Group_393">
                  <g id="Group_392">
                    <path id="Path_223" class="st8" d="M1937.22,891.83l-0.04,15.58l-64.68-37.35l0.04-15.58L1937.22,891.83z" style="fill: rgb(89, 250, 210);"/>
                  </g>
                </g>
              </g>
              <g id="Group_473">
                <g id="Group_396">
                  <g id="Group_395">
                    <path id="Path_224" class="st6" d="M2008.08,882.81c-1.42-0.72-3.09-0.72-4.51,0c0.01-4.59,0.04-9.17,0.04-13.76l0.01-1.82 c1.42-0.72,3.09-0.72,4.51,0c-0.01,4.59-0.03,9.17-0.04,13.76C2008.08,881.54,2008.08,882.27,2008.08,882.81z" style="fill: rgb(243, 252, 255);"/>
                  </g>
                </g>
                <g id="Group_398">
                  <g id="Group_397">
                    <path id="Path_225" class="st6" d="M2003.62,867.23l-0.04,15.58l-4.49,2.61l0.04-15.58L2003.62,867.23z" style="fill: rgb(243, 252, 255);"/>
                  </g>
                </g>
                <g id="Group_400">
                  <g id="Group_399">
                    <path id="Path_226" class="st6" d="M1998.16,886.71l0.04-15.58c0.05-0.57,0.41-1.07,0.93-1.3l-0.04,15.58 C1998.56,885.65,1998.21,886.15,1998.16,886.71z" style="fill: rgb(243, 252, 255);"/>
                  </g>
                </g>
                <g id="Group_402">
                  <g id="Group_401">
                    <path id="Path_227" class="st34" d="M1998.16,886.71l0.04-15.58c0.05,0.58,0.41,1.08,0.94,1.32l-0.04,15.58 C1998.57,887.79,1998.21,887.29,1998.16,886.71z" style="fill: rgb(167, 204, 255);"/>
                  </g>
                </g>
                <g id="Group_404">
                  <g id="Group_403">
                    <path id="Path_228" class="st6" d="M2104.84,923.07l-0.04,15.58l-96.72-55.84l0.04-15.58L2104.84,923.07z" style="fill: rgb(243, 252, 255);"/>
                  </g>
                </g>
                <g id="Group_406">
                  <g id="Group_405">
                    <path id="Path_229" class="st34" d="M2095.86,928.29l-0.04,15.58l-96.72-55.84l0.04-15.58L2095.86,928.29z" style="fill: rgb(167, 204, 255);"/>
                  </g>
                </g>
                <g id="Group_408">
                  <g id="Group_407">
                    <path id="Path_230" class="st6" d="M2054.73,910.65l-0.04,15.58l-60.86-35.14l0.04-15.58L2054.73,910.65z" style="fill: rgb(243, 252, 255);"/>
                  </g>
                </g>
                <g id="Group_410">
                  <g id="Group_409">
                    <path id="Path_231" class="st34" d="M2050.24,913.26l-0.04,15.58l-60.86-35.14l0.04-15.58L2050.24,913.26z" style="fill: rgb(167, 204, 255);"/>
                  </g>
                </g>
                <g id="Group_412">
                  <g id="Group_411">
                    <path id="Path_232" class="st6" d="M1989.32,891.09c-0.52,0.24-0.87,0.73-0.93,1.3l0.04-15.58 c0.05-0.57,0.41-1.07,0.93-1.3L1989.32,891.09l0.04-15.58c1.42-0.72,3.09-0.72,4.51,0c-0.01,4.59-0.03,9.17-0.04,13.76 l-0.01,1.82C1992.42,890.37,1990.74,890.37,1989.32,891.09z" style="fill: rgb(243, 252, 255);"/>
                  </g>
                </g>
                <g id="Group_414">
                  <g id="Group_413">
                    <path id="Path_233" class="st34" d="M1988.4,892.39l0.04-15.58c0.05,0.58,0.41,1.08,0.94,1.31l-0.04,15.58 C1988.81,893.47,1988.45,892.97,1988.4,892.39z" style="fill: rgb(167, 204, 255);"/>
                  </g>
                </g>
                <g id="Group_416">
                  <g id="Group_415">
                    <path id="Path_234" class="st6" d="M2045.42,916.06l-0.04,15.58l-60.86-35.14l0.04-15.58L2045.42,916.06z" style="fill: rgb(243, 252, 255);"/>
                  </g>
                </g>
                <g id="Group_418">
                  <g id="Group_417">
                    <path id="Path_235" class="st34" d="M2040.93,918.67l-0.04,15.58l-60.86-35.14l0.04-15.58L2040.93,918.67z" style="fill: rgb(167, 204, 255);"/>
                  </g>
                </g>
                <g id="Group_420">
                  <g id="Group_419">
                    <path id="Path_236" class="st6" d="M1979.09,897.8l0.05-15.58c0.05-0.57,0.41-1.07,0.93-1.3c1.42-0.72,3.09-0.72,4.51,0 l-0.04,15.58c-1.42-0.72-3.09-0.72-4.51,0C1979.49,896.74,1979.14,897.23,1979.09,897.8z" style="fill: rgb(243, 252, 255);"/>
                  </g>
                </g>
                <g id="Group_422">
                  <g id="Group_421">
                    <path id="Path_237" class="st34" d="M1979.09,897.8l0.05-15.58c0.05,0.58,0.41,1.08,0.94,1.31l-0.04,15.58 C1979.5,898.88,1979.14,898.38,1979.09,897.8z" style="fill: rgb(167, 204, 255);"/>
                  </g>
                </g>
                <g id="Group_424">
                  <g id="Group_423">
                    <path id="Path_238" class="st6" d="M2036.11,921.47l-0.04,15.58l-60.86-35.14l0.04-15.58L2036.11,921.47z" style="fill: rgb(243, 252, 255);"/>
                  </g>
                </g>
                <g id="Group_426">
                  <g id="Group_425">
                    <path id="Path_239" class="st34" d="M2031.62,924.08l-0.04,15.58l-60.86-35.14l0.04-15.58L2031.62,924.08z" style="fill: rgb(167, 204, 255);"/>
                  </g>
                </g>
                <g id="Group_428">
                  <g id="Group_427">
                    <path id="Path_240" class="st6" d="M1970.7,901.91c-0.52,0.23-0.88,0.73-0.93,1.3l0.04-15.58c0.05-0.57,0.41-1.07,0.93-1.3 L1970.7,901.91c0.02-5.19,0.03-10.39,0.04-15.58c1.42-0.72,3.09-0.72,4.51,0l-0.04,15.58 C1973.79,901.19,1972.12,901.19,1970.7,901.91z" style="fill: rgb(243, 252, 255);"/>
                  </g>
                </g>
                <g id="Group_430">
                  <g id="Group_429">
                    <path id="Path_241" class="st34" d="M1969.77,903.21l0.04-15.58c0.05,0.58,0.41,1.08,0.94,1.32l-0.04,15.58 C1970.19,904.29,1969.82,903.79,1969.77,903.21z" style="fill: rgb(167, 204, 255);"/>
                  </g>
                </g>
                <g id="Group_432">
                  <g id="Group_431">
                    <path id="Path_242" class="st6" d="M2054.69,926.23c0.02-5.19,0.03-10.39,0.04-15.58c0.53,0.24,0.89,0.74,0.94,1.32 l-0.04,15.58C2055.58,926.97,2055.22,926.46,2054.69,926.23z" style="fill: rgb(243, 252, 255);"/>
                  </g>
                </g>
                <g id="Group_434">
                  <g id="Group_433">
                    <path id="Path_243" class="st34" d="M2055.68,911.97l-0.04,15.58c-0.05,0.57-0.41,1.07-0.93,1.3 c-1.42,0.72-3.09,0.72-4.51,0l0.04-15.58c1.42,0.72,3.09,0.72,4.51,0C2055.27,913.03,2055.62,912.54,2055.68,911.97z" style="fill: rgb(167, 204, 255);"/>
                  </g>
                </g>
                <g id="Group_436">
                  <g id="Group_435">
                    <path id="Path_244" class="st34" d="M2054.73,910.65c1.25,0.72,1.26,1.89,0.02,2.61c-1.42,0.72-3.09,0.72-4.51,0 l-60.86-35.14c-1.25-0.72-1.25-1.89-0.02-2.61c1.42-0.72,3.09-0.72,4.51,0L2054.73,910.65z" style="fill: rgb(167, 204, 255);"/>
                  </g>
                </g>
                <g id="Group_438">
                  <g id="Group_437">
                    <path id="Path_245" class="st6" d="M2046.32,932.95c-0.05-0.58-0.41-1.08-0.94-1.31c0.01-4.59,0.03-9.17,0.04-13.76 l0.01-1.82c0.53,0.23,0.89,0.74,0.94,1.31C2046.35,922.05,2046.33,928.28,2046.32,932.95z" style="fill: rgb(243, 252, 255);"/>
                  </g>
                </g>
                <g id="Group_440">
                  <g id="Group_439">
                    <path id="Path_246" class="st34" d="M2046.36,917.37l-0.04,15.58c-0.05,0.57-0.41,1.07-0.93,1.3 c-1.42,0.72-3.09,0.72-4.51,0l0.05-15.58c1.42,0.72,3.09,0.72,4.51,0C2045.96,918.44,2046.31,917.94,2046.36,917.37z" style="fill: rgb(167, 204, 255);"/>
                  </g>
                </g>
                <g id="Group_442">
                  <g id="Group_441">
                    <path id="Path_247" class="st34" d="M2045.42,916.06c1.25,0.72,1.25,1.89,0.02,2.61c-1.42,0.72-3.09,0.72-4.51,0 l-60.86-35.14c-1.25-0.72-1.25-1.89-0.01-2.61c1.42-0.72,3.09-0.72,4.51,0L2045.42,916.06z" style="fill: rgb(167, 204, 255);"/>
                  </g>
                </g>
                <g id="Group_444">
                  <g id="Group_443">
                    <path id="Path_248" class="st6" d="M2036.07,937.05c0.02-5.19,0.03-10.39,0.04-15.58c0.53,0.24,0.89,0.74,0.94,1.31 l-0.05,15.58C2036.96,937.79,2036.6,937.28,2036.07,937.05z" style="fill: rgb(243, 252, 255);"/>
                  </g>
                </g>
                <g id="Group_446">
                  <g id="Group_445">
                    <path id="Path_249" class="st6" d="M2104.8,938.65c0.02-5.19,0.03-10.39,0.04-15.58c0.53,0.24,0.89,0.74,0.94,1.32 l-0.04,15.58C2105.69,939.39,2105.33,938.89,2104.8,938.65z" style="fill: rgb(243, 252, 255);"/>
                  </g>
                </g>
                <g id="Group_448">
                  <g id="Group_447">
                    <path id="Path_250" class="st34" d="M2037.05,922.78l-0.05,15.58c-0.05,0.57-0.41,1.07-0.93,1.3 c-1.42,0.72-3.09,0.72-4.51,0l0.04-15.58c1.42,0.72,3.09,0.72,4.51,0C2036.65,923.85,2037,923.35,2037.05,922.78z" style="fill: rgb(167, 204, 255);"/>
                  </g>
                </g>
                <g id="Group_450">
                  <g id="Group_449">
                    <path id="Path_251" class="st34" d="M2105.78,924.39l-0.04,15.58c-0.05,0.57-0.41,1.07-0.93,1.3l0.05-15.58 C2105.38,925.45,2105.73,924.95,2105.78,924.39z" style="fill: rgb(167, 204, 255);"/>
                  </g>
                </g>
                <g id="Group_452">
                  <g id="Group_451">
                    <path id="Path_252" class="st34" d="M2104.86,925.68l-0.04,15.58l-4.49,2.6l0.04-15.58L2104.86,925.68z" style="fill: rgb(167, 204, 255);"/>
                  </g>
                </g>
                <g id="Group_454">
                  <g id="Group_453">
                    <path id="Path_253" class="st34" d="M2100.37,928.29l-0.04,15.58c-1.42,0.72-3.09,0.72-4.51,0l0.04-15.58 C2097.28,929.01,2098.96,929.01,2100.37,928.29z" style="fill: rgb(167, 204, 255);"/>
                  </g>
                </g>
                <g id="Group_456">
                  <g id="Group_455">
                    <path id="Path_254" class="st6" d="M2005.27,852.29l167.02,96.43l-68.06,39.55l-60.33-34.83l-106.69-61.6L2005.27,852.29z M2100.37,928.29l4.49-2.61c1.24-0.72,1.23-1.89-0.02-2.61l-96.72-55.84c-1.42-0.72-3.09-0.72-4.51,0l-4.48,2.61 c-1.24,0.72-1.24,1.89,0.01,2.61l96.72,55.84C2097.28,929.01,2098.96,929.01,2100.37,928.29z M2050.24,913.26 c1.42,0.72,3.09,0.72,4.51,0c1.24-0.72,1.24-1.89-0.02-2.61l-60.86-35.13c-1.42-0.72-3.09-0.72-4.51,0 c-1.24,0.72-1.24,1.89,0.01,2.61L2050.24,913.26L2050.24,913.26z M2040.93,918.67c1.42,0.72,3.09,0.72,4.51,0 c1.24-0.72,1.24-1.89-0.02-2.61l-60.86-35.14c-1.42-0.72-3.09-0.72-4.51,0c-1.24,0.72-1.24,1.89,0.01,2.61L2040.93,918.67 L2040.93,918.67z M2031.62,924.08c1.42,0.72,3.09,0.72,4.51,0c1.24-0.72,1.24-1.89-0.02-2.61l-60.86-35.14 c-1.42-0.72-3.09-0.72-4.51,0c-1.24,0.72-1.24,1.89,0.02,2.61L2031.62,924.08L2031.62,924.08z" style="fill: rgb(243, 252, 255);"/>
                  </g>
                </g>
                <g id="Group_458">
                  <g id="Group_457">
                    <path id="Path_255" class="st34" d="M2036.11,921.47c1.25,0.72,1.25,1.89,0.01,2.61c-1.42,0.72-3.09,0.72-4.51,0 l-60.86-35.14c-1.25-0.72-1.26-1.89-0.02-2.61c1.42-0.72,3.09-0.72,4.51,0L2036.11,921.47z" style="fill: rgb(167, 204, 255);"/>
                  </g>
                </g>
                <g id="Group_460">
                  <g id="Group_459">
                    <path id="Path_256" class="st34" d="M2104.84,923.07c1.24,0.72,1.26,1.89,0.01,2.61l-4.49,2.61 c-1.42,0.72-3.09,0.72-4.51,0l-96.72-55.84c-1.25-0.72-1.26-1.89-0.01-2.61l4.48-2.61c1.42-0.72,3.09-0.72,4.51,0 L2104.84,923.07z" style="fill: rgb(167, 204, 255);"/>
                  </g>
                </g>
                <g id="Group_462">
                  <g id="Group_461">
                    <path id="Path_257" class="st44" d="M2043.91,953.43l-0.04,15.58l-106.69-61.6l0.04-15.58L2043.91,953.43z" style="fill: rgb(172, 253, 233);"/>
                  </g>
                </g>
                <g id="Group_464">
                  <g id="Group_463">
                    <path id="Path_258" class="st6" d="M2172.29,948.72l-0.04,15.58l-68.05,39.55l0.04-15.58L2172.29,948.72z" style="fill: rgb(243, 252, 255);"/>
                  </g>
                </g>
                <g id="Group_466">
                  <g id="Group_465">
                    <path id="Path_259" class="st7" d="M2108.59,990.78l-0.04,15.58l-64.68-37.34l0.04-15.58L2108.59,990.78z" style="fill: rgb(54, 204, 226);"/>
                  </g>
                </g>
                <g id="Group_468">
                  <g id="Group_467">
                    <path id="Path_260" class="st44" d="M2104.24,988.27l-0.04,15.58l-60.33-34.83l0.04-15.58L2104.24,988.27z" style="fill: rgb(172, 253, 233);"/>
                  </g>
                </g>
                <g id="Group_470">
                  <g id="Group_469">
                    <path id="Path_261" class="st7" d="M2176.64,951.23l-68.05,39.55l-64.68-37.34l60.33,34.83l68.05-39.55L2176.64,951.23z" style="fill: rgb(54, 204, 226);"/>
                  </g>
                </g>
                <g id="Group_472">
                  <g id="Group_471">
                    <path id="Path_262" class="st32" d="M2176.64,951.23l-0.04,15.58l-68.05,39.55l0.04-15.58L2176.64,951.23z" style="fill: rgb(47, 249, 199);"/>
                  </g>
                </g>
              </g>
            </g>
          </g>
          <g id="Group_476">
            <path id="Path_263" class="st6" d="M1949.35,583.92c-6.11,0-11.06-4.95-11.06-11.06c0-6.11,4.95-11.06,11.06-11.06 c6.11,0,11.06,4.95,11.06,11.06C1960.41,578.96,1955.46,583.91,1949.35,583.92z M1949.35,563.06c-5.41,0-9.79,4.38-9.79,9.79 c0,5.41,4.38,9.79,9.79,9.79c5.41,0,9.79-4.38,9.79-9.79c0,0,0,0,0,0C1959.14,567.45,1954.76,563.07,1949.35,563.06 L1949.35,563.06z" style="fill: rgb(243, 252, 255);"/>
          </g>
          <g id="Group_478">
            <g id="Group_477">
              <path id="Path_264" class="st6" d="M2065.1,637.01l-13.77-11.76l11.76-13.77l13.77,11.76L2065.1,637.01z M2053.13,625.11 l11.83,10.1l10.1-11.83l-11.83-10.1L2053.13,625.11z" style="fill: rgb(243, 252, 255);"/>
            </g>
          </g>
          <g id="Group_479">
            <path id="Path_265" class="st6" d="M2062.58,559.36h-11.45l5.72-9.91L2062.58,559.36z M2053.35,558.09h7.03l-3.52-6.09 L2053.35,558.09z" style="fill: rgb(243, 252, 255);"/>
          </g>
          <g id="Group_480">
            <path id="Path_266" class="st6" d="M1856.67,700.21c-2.3,0-4.16-1.86-4.16-4.16c0-2.3,1.86-4.16,4.16-4.16 c2.3,0,4.16,1.86,4.16,4.16C1860.82,698.34,1858.96,700.2,1856.67,700.21z M1856.67,692.16c-2.15,0-3.89,1.74-3.89,3.89 s1.74,3.89,3.89,3.89c2.15,0,3.89-1.74,3.89-3.89C1860.55,693.9,1858.81,692.16,1856.67,692.16z" style="fill: rgb(243, 252, 255);"/>
          </g>
          <g id="Group_481">
            <path id="Path_267" class="st6" d="M1782.37,736.04l2.98-6.65l4.27,5.9L1782.37,736.04z M1785.52,731.01l-1.83,4.08l4.45-0.46 L1785.52,731.01z" style="fill: rgb(243, 252, 255);"/>
          </g>
          <g id="Group_482">
            <path id="Path_268" class="st6" d="M2317.51,618.82l2.98-6.65l4.26,5.9L2317.51,618.82z M2320.66,613.78l-1.83,4.08l4.45-0.45 L2320.66,613.78z" style="fill: rgb(243, 252, 255);"/>
          </g>
          <g id="Group_484">
            <g id="Group_483">
              <path id="Path_269" class="st6" d="M2006.97,752.19l-12.1-10.33l10.33-12.1l12.1,10.33L2006.97,752.19z M1996.45,741.73 l10.4,8.88l8.88-10.4l-10.4-8.88L1996.45,741.73z" style="fill: rgb(243, 252, 255);"/>
            </g>
          </g>
          <g id="Group_486">
            <g id="Group_485">
              <path id="Path_270" class="st6" d="M2031.44,683.17l-5.66-1.34l1.34-5.66l5.66,1.34L2031.44,683.17z M2026.27,681.52 l4.86,1.15l1.15-4.86l-4.86-1.15L2026.27,681.52z" style="fill: rgb(243, 252, 255);"/>
            </g>
          </g>
        </g>
      </g>
    </g>
  </g>
</svg>